Latin-Mizra-Bold.ufo
<glyph name="exclam" format="1">
  <advance width="247"/>
  <unicode hex="0021"/>
  <outline>
    <contour>
      <point x="92" y="185" type="line"/>
      <point x="118" y="211"/>
      <point x="148" y="236"/>
      <point x="180" y="261" type="curve"/>
      <point x="180" y="380"/>
      <point x="185" y="496"/>
      <point x="192" y="547" type="curve"/>
      <point x="131" y="547"/>
      <point x="91" y="539"/>
      <point x="42" y="519" type="curve"/>
      <point x="54" y="498"/>
      <point x="61" y="440"/>
      <point x="61" y="369" type="curve" smooth="yes"/>
      <point x="61" y="185" type="line"/>
    </contour>
    <contour>
      <point x="157" y="12"/>
      <point x="184" y="40"/>
      <point x="211" y="73" type="curve"/>
      <point x="178" y="100"/>
      <point x="151" y="127"/>
      <point x="124" y="160" type="curve"/>
      <point x="91" y="133"/>
      <point x="63" y="106"/>
      <point x="36" y="73" type="curve"/>
      <point x="69" y="45"/>
      <point x="96" y="18"/>
      <point x="124" y="-15" type="curve"/>
    </contour>
  </outline>
</glyph>
<glyph name="quotesingle" format="1">
  <advance width="160"/>
  <unicode hex="0027"/>
  <outline>
    <contour>
      <point x="127" y="309" type="line"/>
      <point x="127" y="399"/>
      <point x="128" y="469"/>
      <point x="139" y="549" type="curve"/>
      <point x="96" y="549"/>
      <point x="68" y="544"/>
      <point x="32" y="531" type="curve"/>
      <point x="32" y="376" type="line"/>
      <point x="57" y="354"/>
      <point x="79" y="332"/>
      <point x="98" y="309" type="curve"/>
    </contour>
  </outline>
</glyph>
<glyph name="parenleft" format="1">
  <advance width="346"/>
  <unicode hex="0028"/>
  <outline>
    <contour>
      <point x="338" y="-104"/>
      <point x="340" y="-90"/>
      <point x="340" y="-77" type="curve" smooth="yes"/>
      <point x="340" y="-55"/>
      <point x="338" y="-35"/>
      <point x="335" y="-13" type="curve"/>
      <point x="296" y="-19"/>
      <point x="264" y="-22"/>
      <point x="237" y="-22" type="curve"/>
      <point x="199" y="-12"/>
      <point x="179" y="126"/>
      <point x="179" y="264" type="curve" smooth="yes"/>
      <point x="179" y="401"/>
      <point x="199" y="536"/>
      <point x="237" y="546" type="curve"/>
      <point x="264" y="546"/>
      <point x="296" y="543"/>
      <point x="335" y="537" type="curve"/>
      <point x="338" y="561"/>
      <point x="340" y="582"/>
      <point x="340" y="605" type="curve" smooth="yes"/>
      <point x="340" y="618"/>
      <point x="338" y="632"/>
      <point x="335" y="647" type="curve"/>
      <point x="137" y="647"/>
      <point x="37" y="506"/>
      <point x="37" y="264" type="curve" smooth="yes"/>
      <point x="37" y="23"/>
      <point x="137" y="-119"/>
      <point x="335" y="-119" type="curve"/>
    </contour>
  </outline>
</glyph>
<glyph name="asterisk" format="1">
  <advance width="403"/>
  <unicode hex="002A"/>
  <outline>
    <contour>
      <point x="216" y="258"/>
      <point x="247" y="264"/>
      <point x="287" y="279" type="curve"/>
      <point x="288" y="322"/>
      <point x="270" y="366"/>
      <point x="232" y="409" type="curve"/>
      <point x="291" y="408"/>
      <point x="324" y="406"/>
      <point x="374" y="394" type="curve"/>
      <point x="374" y="444"/>
      <point x="368" y="476"/>
      <point x="353" y="516" type="curve"/>
      <point x="310" y="517"/>
      <point x="266" y="498"/>
      <point x="223" y="460" type="curve"/>
      <point x="223" y="519"/>
      <point x="225" y="553"/>
      <point x="237" y="603" type="curve"/>
      <point x="186" y="603"/>
      <point x="155" y="597"/>
      <point x="115" y="582" type="curve"/>
      <point x="114" y="537"/>
      <point x="133" y="493"/>
      <point x="171" y="451" type="curve"/>
      <point x="114" y="451"/>
      <point x="80" y="453"/>
      <point x="30" y="465" type="curve"/>
      <point x="30" y="415"/>
      <point x="36" y="384"/>
      <point x="51" y="343" type="curve"/>
      <point x="94" y="342"/>
      <point x="138" y="361"/>
      <point x="181" y="399" type="curve"/>
      <point x="180" y="341"/>
      <point x="178" y="308"/>
      <point x="166" y="258" type="curve"/>
    </contour>
  </outline>
</glyph>
<glyph name="two" format="1">
  <advance width="516"/>
  <unicode hex="0032"/>
  <outline>
    <contour>
      <point x="471" y="18"/>
      <point x="480" y="85"/>
      <point x="480" y="136" type="curve"/>
      <point x="437" y="120"/>
      <point x="364" y="110"/>
      <point x="292" y="110" type="curve" smooth="yes"/>
      <point x="268" y="110"/>
      <point x="241" y="112"/>
      <point x="219" y="114" type="curve"/>
      <point x="374" y="216"/>
      <point x="454" y="313"/>
      <point x="454" y="400" type="curve" smooth="yes"/>
      <point x="454" y="481"/>
      <point x="376" y="533"/>
      <point x="252" y="533" type="curve" smooth="yes"/>
      <point x="171" y="533"/>
      <point x="96" y="521"/>
      <point x="44" y="499" type="curve"/>
      <point x="44" y="458"/>
      <point x="65" y="395"/>
      <point x="89" y="365" type="curve"/>
      <point x="155" y="416"/>
      <point x="223" y="450"/>
      <point x="265" y="455" type="curve"/>
      <point x="300" y="450"/>
      <point x="318" y="427"/>
      <point x="318" y="392" type="curve" smooth="yes"/>
      <point x="318" y="312"/>
      <point x="243" y="203"/>
      <point x="37" y="46" type="curve"/>
      <point x="37" y="0" type="line"/>
      <point x="141" y="6"/>
      <point x="409" y="3"/>
      <point x="460" y="-5" type="curve"/>
    </contour>
  </outline>
</glyph>
<glyph name="three" format="1">
  <advance width="491"/>
  <unicode hex="0033"/>
  <outline>
    <contour>
      <point x="376" y="-11"/>
      <point x="459" y="49"/>
      <point x="459" y="159" type="curve" smooth="yes"/>
      <point x="459" y="236"/>
      <point x="395" y="299"/>
      <point x="304" y="311" type="curve"/>
      <point x="360" y="352" type="line" smooth="yes"/>
      <point x="417" y="394"/>
      <point x="443" y="431"/>
      <point x="443" y="472" type="curve" smooth="yes"/>
      <point x="443" y="501"/>
      <point x="430" y="530"/>
      <point x="408" y="546" type="curve"/>
      <point x="370" y="525"/>
      <point x="313" y="516"/>
      <point x="213" y="516" type="curve" smooth="yes"/>
      <point x="137" y="516"/>
      <point x="78" y="520"/>
      <point x="49" y="527" type="curve"/>
      <point x="49" y="480"/>
      <point x="61" y="423"/>
      <point x="78" y="386" type="curve"/>
      <point x="101" y="399"/>
      <point x="132" y="404"/>
      <point x="187" y="404" type="curve" smooth="yes"/>
      <point x="241" y="404"/>
      <point x="291" y="403"/>
      <point x="333" y="402" type="curve"/>
      <point x="180" y="289" type="line" smooth="yes"/>
      <point x="154" y="270"/>
      <point x="140" y="251"/>
      <point x="136" y="235" type="curve"/>
      <point x="136" y="224"/>
      <point x="167" y="207"/>
      <point x="187" y="207" type="curve"/>
      <point x="205" y="233"/>
      <point x="235" y="252"/>
      <point x="258" y="252" type="curve"/>
      <point x="299" y="236"/>
      <point x="322" y="202"/>
      <point x="322" y="159" type="curve" smooth="yes"/>
      <point x="322" y="99"/>
      <point x="280" y="64"/>
      <point x="206" y="64" type="curve" smooth="yes"/>
      <point x="141" y="64"/>
      <point x="82" y="87"/>
      <point x="50" y="125" type="curve"/>
      <point x="37" y="90"/>
      <point x="32" y="65"/>
      <point x="32" y="35" type="curve"/>
      <point x="85" y="5"/>
      <point x="151" y="-11"/>
      <point x="221" y="-11" type="curve" smooth="yes"/>
    </contour>
  </outline>
</glyph>
<glyph name="four" format="1">
  <advance width="501"/>
  <unicode hex="0034"/>
  <outline>
    <contour>
      <point x="376" y="-6"/>
      <point x="401" y="-4"/>
      <point x="424" y="0" type="curve"/>
      <point x="415" y="29"/>
      <point x="411" y="56"/>
      <point x="409" y="103" type="curve"/>
      <point x="451" y="98" type="line"/>
      <point x="468" y="134"/>
      <point x="479" y="188"/>
      <point x="479" y="229" type="curve"/>
      <point x="462" y="222"/>
      <point x="439" y="218"/>
      <point x="409" y="215" type="curve"/>
      <point x="411" y="263"/>
      <point x="415" y="312"/>
      <point x="419" y="343" type="curve"/>
      <point x="388" y="347"/>
      <point x="361" y="349"/>
      <point x="337" y="349" type="curve" smooth="yes"/>
      <point x="314" y="349"/>
      <point x="290" y="347"/>
      <point x="266" y="343" type="curve"/>
      <point x="276" y="309"/>
      <point x="281" y="278"/>
      <point x="282" y="211" type="curve"/>
      <point x="227" y="211"/>
      <point x="170" y="212"/>
      <point x="123" y="213" type="curve"/>
      <point x="230" y="371"/>
      <point x="322" y="471"/>
      <point x="372" y="515" type="curve"/>
      <point x="326" y="539"/>
      <point x="280" y="546"/>
      <point x="221" y="546" type="curve"/>
      <point x="164" y="455"/>
      <point x="92" y="334"/>
      <point x="38" y="239" type="curve" smooth="yes"/>
      <point x="21" y="210"/>
      <point x="12" y="180"/>
      <point x="12" y="152" type="curve" smooth="yes"/>
      <point x="12" y="126"/>
      <point x="22" y="104"/>
      <point x="42" y="89" type="curve"/>
      <point x="78" y="103"/>
      <point x="132" y="109"/>
      <point x="232" y="109" type="curve" smooth="yes"/>
      <point x="280" y="109" type="line"/>
      <point x="279" y="68"/>
      <point x="275" y="27"/>
      <point x="271" y="0" type="curve"/>
      <point x="302" y="-4"/>
      <point x="329" y="-6"/>
      <point x="353" y="-6" type="curve" smooth="yes"/>
    </contour>
  </outline>
</glyph>
<glyph name="five" format="1">
  <advance width="477"/>
  <unicode hex="0035"/>
  <outline>
    <contour>
      <point x="365" y="-11"/>
      <point x="445" y="51"/>
      <point x="445" y="164" type="curve" smooth="yes"/>
      <point x="445" y="257"/>
      <point x="367" y="329"/>
      <point x="266" y="329" type="curve" smooth="yes"/>
      <point x="215" y="329"/>
      <point x="166" y="316"/>
      <point x="126" y="291" type="curve"/>
      <point x="133" y="401" type="line"/>
      <point x="180" y="403"/>
      <point x="233" y="404"/>
      <point x="290" y="404" type="curve" smooth="yes"/>
      <point x="344" y="404"/>
      <point x="374" y="399"/>
      <point x="397" y="386" type="curve"/>
      <point x="414" y="423"/>
      <point x="425" y="481"/>
      <point x="425" y="527" type="curve"/>
      <point x="393" y="520"/>
      <point x="323" y="516"/>
      <point x="242" y="516" type="curve" smooth="yes"/>
      <point x="158" y="516"/>
      <point x="112" y="519"/>
      <point x="86" y="527" type="curve"/>
      <point x="67" y="239" type="line"/>
      <point x="67" y="232"/>
      <point x="93" y="219"/>
      <point x="121" y="211" type="curve"/>
      <point x="166" y="243"/>
      <point x="212" y="262"/>
      <point x="241" y="262" type="curve"/>
      <point x="286" y="239"/>
      <point x="310" y="206"/>
      <point x="310" y="164" type="curve" smooth="yes"/>
      <point x="310" y="100"/>
      <point x="270" y="64"/>
      <point x="200" y="64" type="curve" smooth="yes"/>
      <point x="137" y="64"/>
      <point x="80" y="87"/>
      <point x="49" y="125" type="curve"/>
      <point x="37" y="95"/>
      <point x="32" y="70"/>
      <point x="32" y="35" type="curve"/>
      <point x="84" y="5"/>
      <point x="147" y="-11"/>
      <point x="215" y="-11" type="curve" smooth="yes"/>
    </contour>
  </outline>
</glyph>
<glyph name="six" format="1">
  <advance width="511"/>
  <unicode hex="0036"/>
  <outline>
    <contour>
      <point x="389" y="-9"/>
      <point x="483" y="64"/>
      <point x="483" y="168" type="curve" smooth="yes"/>
      <point x="483" y="271"/>
      <point x="407" y="339"/>
      <point x="295" y="339" type="curve" smooth="yes"/>
      <point x="251" y="339"/>
      <point x="208" y="325"/>
      <point x="169" y="299" type="curve"/>
      <point x="182" y="375"/>
      <point x="217" y="426"/>
      <point x="271" y="446" type="curve"/>
      <point x="301" y="446"/>
      <point x="359" y="415"/>
      <point x="405" y="375" type="curve"/>
      <point x="428" y="401"/>
      <point x="451" y="467"/>
      <point x="451" y="509" type="curve"/>
      <point x="415" y="525"/>
      <point x="370" y="533"/>
      <point x="318" y="533" type="curve" smooth="yes"/>
      <point x="128" y="533"/>
      <point x="27" y="426"/>
      <point x="27" y="223" type="curve" smooth="yes"/>
      <point x="27" y="84"/>
      <point x="118" y="-9"/>
      <point x="255" y="-9" type="curve" smooth="yes"/>
    </contour>
    <contour>
      <point x="200" y="64"/>
      <point x="163" y="122"/>
      <point x="163" y="221" type="curve" smooth="yes"/>
      <point x="163" y="226" type="line"/>
      <point x="187" y="246"/>
      <point x="215" y="261"/>
      <point x="246" y="270" type="curve"/>
      <point x="309" y="270"/>
      <point x="349" y="232"/>
      <point x="349" y="171" type="curve" smooth="yes"/>
      <point x="349" y="106"/>
      <point x="315" y="64"/>
      <point x="263" y="64" type="curve" smooth="yes"/>
    </contour>
  </outline>
</glyph>
<glyph name="eight" format="1">
  <advance width="526"/>
  <unicode hex="0038"/>
  <outline>
    <contour>
      <point x="390" y="-11"/>
      <point x="495" y="53"/>
      <point x="495" y="152" type="curve" smooth="yes"/>
      <point x="495" y="219"/>
      <point x="451" y="256"/>
      <point x="396" y="282" type="curve"/>
      <point x="448" y="312"/>
      <point x="478" y="355"/>
      <point x="478" y="402" type="curve" smooth="yes"/>
      <point x="478" y="481"/>
      <point x="400" y="533"/>
      <point x="285" y="533" type="curve" smooth="yes"/>
      <point x="146" y="533"/>
      <point x="49" y="470"/>
      <point x="49" y="380" type="curve" smooth="yes"/>
      <point x="49" y="318"/>
      <point x="81" y="279"/>
      <point x="125" y="251" type="curve"/>
      <point x="66" y="220"/>
      <point x="32" y="176"/>
      <point x="32" y="126" type="curve" smooth="yes"/>
      <point x="32" y="44"/>
      <point x="119" y="-11"/>
      <point x="248" y="-11" type="curve" smooth="yes"/>
    </contour>
    <contour>
      <point x="205" y="64"/>
      <point x="167" y="94"/>
      <point x="167" y="138" type="curve" smooth="yes"/>
      <point x="167" y="169"/>
      <point x="180" y="195"/>
      <point x="203" y="214" type="curve"/>
      <point x="281" y="186"/>
      <point x="359" y="172"/>
      <point x="359" y="127" type="curve" smooth="yes"/>
      <point x="359" y="88"/>
      <point x="322" y="64"/>
      <point x="260" y="64" type="curve" smooth="yes"/>
    </contour>
    <contour>
      <point x="243" y="336"/>
      <point x="178" y="353"/>
      <point x="178" y="399" type="curve" smooth="yes"/>
      <point x="178" y="440"/>
      <point x="218" y="465"/>
      <point x="273" y="465" type="curve"/>
      <point x="320" y="454"/>
      <point x="348" y="429"/>
      <point x="348" y="390" type="curve" smooth="yes"/>
      <point x="348" y="359"/>
      <point x="335" y="332"/>
      <point x="313" y="313" type="curve"/>
    </contour>
  </outline>
</glyph>
<glyph name="nine" format="1">
  <advance width="501"/>
  <unicode hex="0039"/>
  <outline>
    <contour>
      <point x="373" y="-11"/>
      <point x="473" y="97"/>
      <point x="473" y="289" type="curve" smooth="yes"/>
      <point x="473" y="435"/>
      <point x="381" y="533"/>
      <point x="243" y="533" type="curve" smooth="yes"/>
      <point x="116" y="533"/>
      <point x="27" y="453"/>
      <point x="27" y="338" type="curve" smooth="yes"/>
      <point x="27" y="234"/>
      <point x="99" y="165"/>
      <point x="206" y="165" type="curve" smooth="yes"/>
      <point x="251" y="165"/>
      <point x="296" y="180"/>
      <point x="336" y="209" type="curve"/>
      <point x="327" y="115"/>
      <point x="281" y="65"/>
      <point x="198" y="65" type="curve" smooth="yes"/>
      <point x="136" y="65"/>
      <point x="79" y="88"/>
      <point x="48" y="125" type="curve"/>
      <point x="36" y="91"/>
      <point x="31" y="66"/>
      <point x="31" y="35" type="curve"/>
      <point x="77" y="5"/>
      <point x="135" y="-11"/>
      <point x="196" y="-11" type="curve" smooth="yes"/>
    </contour>
    <contour>
      <point x="199" y="234"/>
      <point x="163" y="275"/>
      <point x="163" y="341" type="curve" smooth="yes"/>
      <point x="163" y="402"/>
      <point x="194" y="442"/>
      <point x="243" y="442" type="curve" smooth="yes"/>
      <point x="300" y="442"/>
      <point x="333" y="384"/>
      <point x="338" y="277" type="curve"/>
      <point x="314" y="258"/>
      <point x="286" y="243"/>
      <point x="256" y="234" type="curve"/>
    </contour>
  </outline>
</glyph>
<glyph name="greater" format="1">
  <advance width="533"/>
  <unicode hex="003E"/>
  <outline>
    <contour>
      <point x="211" y="120"/>
      <point x="353" y="177"/>
      <point x="474" y="220" type="curve"/>
      <point x="477" y="235"/>
      <point x="478" y="251"/>
      <point x="478" y="266" type="curve" smooth="yes"/>
      <point x="478" y="281"/>
      <point x="477" y="296"/>
      <point x="474" y="312" type="curve"/>
      <point x="353" y="355"/>
      <point x="211" y="412"/>
      <point x="96" y="465" type="curve"/>
      <point x="77" y="437"/>
      <point x="67" y="411"/>
      <point x="59" y="376" type="curve"/>
      <point x="352" y="266" type="line"/>
      <point x="59" y="155" type="line"/>
      <point x="66" y="124"/>
      <point x="79" y="93"/>
      <point x="96" y="66" type="curve"/>
    </contour>
  </outline>
</glyph>
<glyph name="question" format="1">
  <advance width="384"/>
  <unicode hex="003F"/>
  <outline>
    <contour>
      <point x="264" y="230"/>
      <point x="352" y="303"/>
      <point x="352" y="395" type="curve" smooth="yes"/>
      <point x="352" y="494"/>
      <point x="288" y="547"/>
      <point x="170" y="547" type="curve" smooth="yes"/>
      <point x="113" y="547"/>
      <point x="60" y="531"/>
      <point x="16" y="501" type="curve"/>
      <point x="16" y="466"/>
      <point x="20" y="441"/>
      <point x="30" y="411" type="curve"/>
      <point x="52" y="449"/>
      <point x="92" y="472"/>
      <point x="136" y="472" type="curve" smooth="yes"/>
      <point x="187" y="472"/>
      <point x="217" y="442"/>
      <point x="217" y="391" type="curve" smooth="yes"/>
      <point x="217" y="341"/>
      <point x="186" y="302"/>
      <point x="127" y="276" type="curve"/>
      <point x="150" y="215" type="line"/>
    </contour>
    <contour>
      <point x="193" y="12"/>
      <point x="220" y="40"/>
      <point x="247" y="73" type="curve"/>
      <point x="214" y="100"/>
      <point x="187" y="127"/>
      <point x="160" y="160" type="curve"/>
      <point x="127" y="133"/>
      <point x="99" y="106"/>
      <point x="72" y="73" type="curve"/>
      <point x="105" y="45"/>
      <point x="132" y="18"/>
      <point x="160" y="-15" type="curve"/>
    </contour>
  </outline>
</glyph>
<glyph name="at" format="1">
  <advance width="812"/>
  <unicode hex="0040"/>
  <outline>
    <contour>
      <point x="420" y="-124"/>
      <point x="464" y="-113"/>
      <point x="500" y="-94" type="curve"/>
      <point x="500" y="-68"/>
      <point x="496" y="-50"/>
      <point x="484" y="-27" type="curve"/>
      <point x="460" y="-45"/>
      <point x="416" y="-56"/>
      <point x="374" y="-56" type="curve" smooth="yes"/>
      <point x="221" y="-56"/>
      <point x="137" y="59"/>
      <point x="137" y="214" type="curve" smooth="yes"/>
      <point x="137" y="372"/>
      <point x="259" y="485"/>
      <point x="430" y="485" type="curve"/>
      <point x="591" y="460"/>
      <point x="686" y="357"/>
      <point x="686" y="206" type="curve" smooth="yes"/>
      <point x="686" y="107"/>
      <point x="645" y="63"/>
      <point x="612" y="63" type="curve" smooth="yes"/>
      <point x="585" y="63"/>
      <point x="561" y="80"/>
      <point x="561" y="138" type="curve" smooth="yes"/>
      <point x="561" y="199"/>
      <point x="568" y="245"/>
      <point x="568" y="292" type="curve" smooth="yes"/>
      <point x="568" y="363"/>
      <point x="519" y="402"/>
      <point x="428" y="402" type="curve" smooth="yes"/>
      <point x="363" y="402"/>
      <point x="296" y="369"/>
      <point x="258" y="320" type="curve"/>
      <point x="272" y="258" type="line"/>
      <point x="300" y="283"/>
      <point x="343" y="297"/>
      <point x="383" y="297" type="curve" smooth="yes"/>
      <point x="426" y="297"/>
      <point x="446" y="281"/>
      <point x="450" y="243" type="curve"/>
      <point x="311" y="232"/>
      <point x="242" y="194"/>
      <point x="242" y="125" type="curve" smooth="yes"/>
      <point x="242" y="81"/>
      <point x="269" y="48"/>
      <point x="332" y="48" type="curve" smooth="yes"/>
      <point x="368" y="48"/>
      <point x="411" y="62"/>
      <point x="452" y="85" type="curve"/>
      <point x="470" y="14"/>
      <point x="526" y="-13"/>
      <point x="583" y="-13" type="curve" smooth="yes"/>
      <point x="668" y="-13"/>
      <point x="766" y="64"/>
      <point x="766" y="251" type="curve" smooth="yes"/>
      <point x="766" y="458"/>
      <point x="632" y="595"/>
      <point x="431" y="595" type="curve" smooth="yes"/>
      <point x="206" y="595"/>
      <point x="47" y="438"/>
      <point x="47" y="212" type="curve" smooth="yes"/>
      <point x="47" y="11"/>
      <point x="177" y="-124"/>
      <point x="371" y="-124" type="curve" smooth="yes"/>
    </contour>
    <contour>
      <point x="374" y="118"/>
      <point x="365" y="134"/>
      <point x="365" y="149" type="curve" smooth="yes"/>
      <point x="365" y="177"/>
      <point x="395" y="195"/>
      <point x="450" y="200" type="curve"/>
      <point x="447" y="179"/>
      <point x="445" y="154"/>
      <point x="445" y="131" type="curve"/>
      <point x="426" y="120"/>
      <point x="404" y="112"/>
      <point x="385" y="110" type="curve"/>
    </contour>
  </outline>
</glyph>
<glyph name="A" format="1">
  <advance width="545"/>
  <unicode hex="0041"/>
  <outline>
    <contour>
      <point x="489" y="-5"/>
      <point x="516" y="-3"/>
      <point x="542" y="2" type="curve"/>
      <point x="501" y="75"/>
      <point x="376" y="411"/>
      <point x="337" y="529" type="curve"/>
      <point x="296" y="535"/>
      <point x="254" y="535"/>
      <point x="208" y="529" type="curve"/>
      <point x="169" y="411"/>
      <point x="44" y="75"/>
      <point x="3" y="2" type="curve"/>
      <point x="20" y="-2"/>
      <point x="37" y="-4"/>
      <point x="53" y="-4" type="curve" smooth="yes"/>
      <point x="66" y="-4"/>
      <point x="80" y="-2"/>
      <point x="97" y="2" type="curve"/>
      <point x="106" y="30"/>
      <point x="121" y="73"/>
      <point x="139" y="122" type="curve"/>
      <point x="160" y="125"/>
      <point x="193" y="126"/>
      <point x="233" y="126" type="curve" smooth="yes"/>
      <point x="271" y="126"/>
      <point x="313" y="125"/>
      <point x="349" y="123" type="curve"/>
      <point x="367" y="74"/>
      <point x="382" y="30"/>
      <point x="391" y="2" type="curve"/>
      <point x="419" y="-3"/>
      <point x="443" y="-5"/>
      <point x="464" y="-5" type="curve" smooth="yes"/>
    </contour>
    <contour>
      <point x="239" y="201"/>
      <point x="202" y="202"/>
      <point x="170" y="204" type="curve"/>
      <point x="196" y="273"/>
      <point x="223" y="345"/>
      <point x="245" y="398" type="curve"/>
      <point x="266" y="349"/>
      <point x="293" y="276"/>
      <point x="320" y="203" type="curve"/>
      <point x="306" y="202"/>
      <point x="288" y="201"/>
      <point x="272" y="201" type="curve" smooth="yes"/>
    </contour>
    <contour>
      <point x="542" y="2" type="move" name="ogonek"/>
    </contour>
    <contour>
      <point x="273" y="0" type="move" name="bottom"/>
    </contour>
    <contour>
      <point x="273" y="527" type="move" name="top"/>
    </contour>
  </outline>
</glyph>
<glyph name="B" format="1">
  <advance width="535"/>
  <unicode hex="0042"/>
  <outline>
    <contour>
      <point x="420" y="-12"/>
      <point x="503" y="44"/>
      <point x="503" y="144" type="curve" smooth="yes"/>
      <point x="503" y="205"/>
      <point x="463" y="254"/>
      <point x="398" y="280" type="curve"/>
      <point x="448" y="305"/>
      <point x="478" y="345"/>
      <point x="478" y="391" type="curve" smooth="yes"/>
      <point x="478" y="482"/>
      <point x="403" y="532"/>
      <point x="267" y="532" type="curve" smooth="yes"/>
      <point x="187" y="532"/>
      <point x="100" y="521"/>
      <point x="47" y="505" type="curve"/>
      <point x="58" y="479"/>
      <point x="63" y="416"/>
      <point x="63" y="302" type="curve" smooth="yes"/>
      <point x="63" y="197"/>
      <point x="59" y="71"/>
      <point x="54" y="15" type="curve"/>
      <point x="106" y="-1"/>
      <point x="192" y="-12"/>
      <point x="271" y="-12" type="curve" smooth="yes"/>
    </contour>
    <contour>
      <point x="238" y="53"/>
      <point x="215" y="57"/>
      <point x="193" y="64" type="curve"/>
      <point x="191" y="101"/>
      <point x="189" y="152"/>
      <point x="189" y="217" type="curve"/>
      <point x="228" y="232"/>
      <point x="265" y="242"/>
      <point x="288" y="242" type="curve"/>
      <point x="340" y="222"/>
      <point x="369" y="188"/>
      <point x="369" y="144" type="curve" smooth="yes"/>
      <point x="369" y="83"/>
      <point x="332" y="53"/>
      <point x="261" y="53" type="curve" smooth="yes"/>
    </contour>
    <contour>
      <point x="191" y="342"/>
      <point x="193" y="394"/>
      <point x="195" y="438" type="curve"/>
      <point x="215" y="444"/>
      <point x="235" y="447"/>
      <point x="257" y="447" type="curve" smooth="yes"/>
      <point x="314" y="447"/>
      <point x="344" y="425"/>
      <point x="344" y="380" type="curve" smooth="yes"/>
      <point x="344" y="352"/>
      <point x="326" y="321"/>
      <point x="294" y="302" type="curve"/>
      <point x="251" y="303"/>
      <point x="220" y="301"/>
      <point x="190" y="293" type="curve"/>
    </contour>
  </outline>
</glyph>
<glyph name="E" format="1">
  <advance width="471"/>
  <unicode hex="0045"/>
  <outline>
    <contour>
      <point x="93" y="2"/>
      <point x="157" y="4"/>
      <point x="228" y="4" type="curve" smooth="yes"/>
      <point x="299" y="4"/>
      <point x="372" y="2"/>
      <point x="422" y="-3" type="curve"/>
      <point x="435" y="18"/>
      <point x="443" y="85"/>
      <point x="443" y="128" type="curve"/>
      <point x="401" y="111"/>
      <point x="333" y="101"/>
      <point x="273" y="101" type="curve" smooth="yes"/>
      <point x="245" y="101"/>
      <point x="216" y="103"/>
      <point x="192" y="108" type="curve"/>
      <point x="189" y="141"/>
      <point x="188" y="181"/>
      <point x="188" y="225" type="curve"/>
      <point x="245" y="225"/>
      <point x="297" y="223"/>
      <point x="387" y="218" type="curve"/>
      <point x="389" y="234"/>
      <point x="391" y="252"/>
      <point x="391" y="266" type="curve" smooth="yes"/>
      <point x="391" y="282"/>
      <point x="389" y="298"/>
      <point x="387" y="313" type="curve"/>
      <point x="347" y="306"/>
      <point x="321" y="302"/>
      <point x="247" y="302" type="curve" smooth="yes"/>
      <point x="228" y="302"/>
      <point x="209" y="303"/>
      <point x="189" y="304" type="curve"/>
      <point x="190" y="342"/>
      <point x="192" y="382"/>
      <point x="194" y="418" type="curve"/>
      <point x="216" y="421"/>
      <point x="243" y="423"/>
      <point x="268" y="423" type="curve" smooth="yes"/>
      <point x="321" y="423"/>
      <point x="381" y="414"/>
      <point x="418" y="396" type="curve"/>
      <point x="431" y="416"/>
      <point x="439" y="484"/>
      <point x="439" y="527" type="curve"/>
      <point x="384" y="522"/>
      <point x="302" y="520"/>
      <point x="223" y="520" type="curve" smooth="yes"/>
      <point x="155" y="520"/>
      <point x="88" y="522"/>
      <point x="47" y="527" type="curve"/>
      <point x="60" y="477"/>
      <point x="63" y="426"/>
      <point x="63" y="300" type="curve" smooth="yes"/>
      <point x="63" y="192"/>
      <point x="59" y="73"/>
      <point x="52" y="-3" type="curve"/>
    </contour>
    <contour>
      <point x="422" y="17" type="move" name="ogonek"/>
    </contour>
    <contour>
      <point x="254" y="527" type="move" name="top"/>
    </contour>
    <contour>
      <point x="20" y="527" type="move" name="topleft"/>
    </contour>
    <contour>
      <point x="236" y="0" type="move" name="bottom"/>
    </contour>
  </outline>
</glyph>
<glyph name="F" format="1">
  <advance width="435"/>
  <unicode hex="0046"/>
  <outline>
    <contour>
      <point x="157" y="-6"/>
      <point x="181" y="-4"/>
      <point x="204" y="0" type="curve"/>
      <point x="193" y="29"/>
      <point x="188" y="101"/>
      <point x="188" y="225" type="curve"/>
      <point x="243" y="225"/>
      <point x="286" y="223"/>
      <point x="367" y="218" type="curve"/>
      <point x="370" y="238"/>
      <point x="371" y="254"/>
      <point x="371" y="266" type="curve" smooth="yes"/>
      <point x="371" y="279"/>
      <point x="370" y="293"/>
      <point x="367" y="313" type="curve"/>
      <point x="324" y="305"/>
      <point x="298" y="302"/>
      <point x="237" y="302" type="curve" smooth="yes"/>
      <point x="221" y="302"/>
      <point x="201" y="303"/>
      <point x="186" y="304" type="curve"/>
      <point x="186" y="343"/>
      <point x="187" y="397"/>
      <point x="189" y="418" type="curve"/>
      <point x="213" y="421"/>
      <point x="241" y="423"/>
      <point x="268" y="423" type="curve" smooth="yes"/>
      <point x="319" y="423"/>
      <point x="370" y="413"/>
      <point x="398" y="396" type="curve"/>
      <point x="409" y="413"/>
      <point x="419" y="477"/>
      <point x="419" y="527" type="curve"/>
      <point x="376" y="522"/>
      <point x="308" y="520"/>
      <point x="223" y="520" type="curve" smooth="yes"/>
      <point x="150" y="520"/>
      <point x="94" y="522"/>
      <point x="47" y="527" type="curve"/>
      <point x="60" y="471"/>
      <point x="63" y="416"/>
      <point x="63" y="278" type="curve" smooth="yes"/>
      <point x="63" y="187"/>
      <point x="58" y="64"/>
      <point x="52" y="0" type="curve"/>
      <point x="83" y="-4"/>
      <point x="110" y="-6"/>
      <point x="134" y="-6" type="curve" smooth="yes"/>
    </contour>
  </outline>
</glyph>
<glyph name="I" format="1">
  <advance width="252"/>
  <unicode hex="0049"/>
  <outline>
    <contour>
      <point x="157" y="-6"/>
      <point x="181" y="-4"/>
      <point x="204" y="0" type="curve"/>
      <point x="193" y="29"/>
      <point x="188" y="103"/>
      <point x="188" y="227" type="curve" smooth="yes"/>
      <point x="188" y="326"/>
      <point x="193" y="458"/>
      <point x="199" y="527" type="curve"/>
      <point x="171" y="531"/>
      <point x="147" y="533"/>
      <point x="126" y="533" type="curve" smooth="yes"/>
      <point x="99" y="533"/>
      <point x="71" y="531"/>
      <point x="47" y="527" type="curve"/>
      <point x="57" y="497"/>
      <point x="63" y="414"/>
      <point x="63" y="292" type="curve" smooth="yes"/>
      <point x="63" y="197"/>
      <point x="57" y="73"/>
      <point x="52" y="0" type="curve"/>
      <point x="83" y="-4"/>
      <point x="110" y="-6"/>
      <point x="134" y="-6" type="curve" smooth="yes"/>
    </contour>
    <contour>
      <point x="205" y="0" type="move" name="ogonek"/>
    </contour>
    <contour>
      <point x="126" y="527" type="move" name="top"/>
    </contour>
    <contour>
      <point x="20" y="527" type="move" name="topleft"/>
    </contour>
    <contour>
      <point x="126" y="0" type="move" name="bottom"/>
    </contour>
  </outline>
</glyph>
<glyph name="K" format="1">
  <advance width="534"/>
  <unicode hex="004B"/>
  <outline>
    <contour>
      <point x="157" y="-6"/>
      <point x="181" y="-4"/>
      <point x="204" y="0" type="curve"/>
      <point x="194" y="26"/>
      <point x="189" y="86"/>
      <point x="188" y="185" type="curve"/>
      <point x="198" y="197"/>
      <point x="209" y="209"/>
      <point x="220" y="221" type="curve"/>
      <point x="293" y="117"/>
      <point x="349" y="34"/>
      <point x="372" y="-6" type="curve"/>
      <point x="436" y="-6"/>
      <point x="485" y="-1"/>
      <point x="534" y="15" type="curve"/>
      <point x="475" y="59"/>
      <point x="386" y="185"/>
      <point x="304" y="317" type="curve"/>
      <point x="372" y="394"/>
      <point x="446" y="472"/>
      <point x="509" y="533" type="curve"/>
      <point x="461" y="533"/>
      <point x="420" y="531"/>
      <point x="364" y="522" type="curve"/>
      <point x="364" y="493"/>
      <point x="345" y="447"/>
      <point x="188" y="282" type="curve"/>
      <point x="190" y="370"/>
      <point x="194" y="470"/>
      <point x="199" y="527" type="curve"/>
      <point x="171" y="531"/>
      <point x="147" y="533"/>
      <point x="126" y="533" type="curve" smooth="yes"/>
      <point x="99" y="533"/>
      <point x="71" y="531"/>
      <point x="47" y="527" type="curve"/>
      <point x="57" y="497"/>
      <point x="63" y="414"/>
      <point x="63" y="292" type="curve" smooth="yes"/>
      <point x="63" y="197"/>
      <point x="58" y="73"/>
      <point x="52" y="0" type="curve"/>
      <point x="83" y="-4"/>
      <point x="110" y="-6"/>
      <point x="134" y="-6" type="curve" smooth="yes"/>
    </contour>
    <contour>
      <point x="267" y="527" type="move" name="top"/>
    </contour>
    <contour>
      <point x="267" y="0" type="move" name="bottom"/>
    </contour>
  </outline>
</glyph>
<glyph name="O" format="1">
  <advance width="611"/>
  <unicode hex="004F"/>
  <outline>
    <contour>
      <point x="455" y="-13"/>
      <point x="580" y="105"/>
      <point x="580" y="272" type="curve" smooth="yes"/>
      <point x="580" y="430"/>
      <point x="477" y="535"/>
      <point x="324" y="535" type="curve" smooth="yes"/>
      <point x="152" y="535"/>
      <point x="32" y="415"/>
      <point x="32" y="244" type="curve" smooth="yes"/>
      <point x="32" y="91"/>
      <point x="131" y="-13"/>
      <point x="279" y="-13" type="curve" smooth="yes"/>
    </contour>
    <contour>
      <point x="221" y="59"/>
      <point x="167" y="130"/>
      <point x="167" y="237" type="curve" smooth="yes"/>
      <point x="167" y="344"/>
      <point x="231" y="421"/>
      <point x="319" y="421" type="curve"/>
      <point x="395" y="402"/>
      <point x="444" y="325"/>
      <point x="444" y="227" type="curve" smooth="yes"/>
      <point x="444" y="124"/>
      <point x="389" y="59"/>
      <point x="302" y="59" type="curve" smooth="yes"/>
    </contour>
    <contour>
      <point x="306" y="264" type="move" name="center"/>
    </contour>
    <contour>
      <point x="550" y="10" type="move" name="ogonek"/>
    </contour>
    <contour>
      <point x="306" y="527" type="move" name="top"/>
    </contour>
    <contour>
      <point x="591" y="527" type="move" name="topright"/>
    </contour>
    <contour>
      <point x="20" y="527" type="move" name="topleft"/>
    </contour>
    <contour>
      <point x="306" y="0" type="move" name="bottom"/>
    </contour>
  </outline>
</glyph>
<glyph name="P" format="1">
  <advance width="500"/>
  <unicode hex="0050"/>
  <outline>
    <contour>
      <point x="157" y="-6"/>
      <point x="181" y="-4"/>
      <point x="204" y="0" type="curve"/>
      <point x="195" y="24"/>
      <point x="190" y="80"/>
      <point x="189" y="164" type="curve"/>
      <point x="207" y="161"/>
      <point x="226" y="160"/>
      <point x="246" y="160" type="curve" smooth="yes"/>
      <point x="383" y="160"/>
      <point x="478" y="240"/>
      <point x="478" y="356" type="curve" smooth="yes"/>
      <point x="478" y="469"/>
      <point x="399" y="532"/>
      <point x="256" y="532" type="curve" smooth="yes"/>
      <point x="177" y="532"/>
      <point x="92" y="521"/>
      <point x="47" y="505" type="curve"/>
      <point x="58" y="477"/>
      <point x="63" y="404"/>
      <point x="63" y="292" type="curve" smooth="yes"/>
      <point x="63" y="190"/>
      <point x="58" y="64"/>
      <point x="52" y="0" type="curve"/>
      <point x="83" y="-4"/>
      <point x="110" y="-6"/>
      <point x="134" y="-6" type="curve" smooth="yes"/>
    </contour>
    <contour>
      <point x="261" y="231"/>
      <point x="226" y="238"/>
      <point x="189" y="249" type="curve"/>
      <point x="189" y="314"/>
      <point x="192" y="386"/>
      <point x="195" y="443" type="curve"/>
      <point x="208" y="446"/>
      <point x="222" y="447"/>
      <point x="235" y="447" type="curve" smooth="yes"/>
      <point x="304" y="447"/>
      <point x="344" y="417"/>
      <point x="344" y="348" type="curve" smooth="yes"/>
      <point x="344" y="294"/>
      <point x="317" y="251"/>
      <point x="284" y="231" type="curve"/>
    </contour>
    <contour>
      <point x="252" y="527" type="move" name="top"/>
    </contour>
    <contour>
      <point x="252" y="0" type="move" name="bottom"/>
    </contour>
  </outline>
</glyph>
<glyph name="Q" format="1">
  <advance width="611"/>
  <unicode hex="0051"/>
  <outline>
    <contour>
      <point x="399" y="-134"/>
      <point x="447" y="-129"/>
      <point x="494" y="-113" type="curve"/>
      <point x="459" y="-90"/>
      <point x="413" y="-38"/>
      <point x="364" y="25" type="curve"/>
      <point x="242" y="25" type="line"/>
      <point x="288" y="-47"/>
      <point x="323" y="-105"/>
      <point x="338" y="-134" type="curve"/>
    </contour>
    <component base="O"/>
  </outline>
</glyph>
<glyph name="V" format="1">
  <advance width="531"/>
  <unicode hex="0056"/>
  <outline>
    <contour>
      <point x="363" y="27" type="line"/>
      <point x="404" y="168"/>
      <point x="482" y="409"/>
      <point x="526" y="533" type="curve"/>
      <point x="483" y="533"/>
      <point x="451" y="530"/>
      <point x="416" y="522" type="curve"/>
      <point x="428" y="489"/>
      <point x="394" y="359"/>
      <point x="306" y="92" type="curve"/>
      <point x="287" y="126"/>
      <point x="264" y="178"/>
      <point x="236" y="260" type="curve" smooth="yes"/>
      <point x="206" y="350"/>
      <point x="177" y="471"/>
      <point x="167" y="533" type="curve"/>
      <point x="103" y="533"/>
      <point x="54" y="526"/>
      <point x="5" y="512" type="curve"/>
      <point x="136" y="244"/>
      <point x="150" y="-9"/>
      <point x="256" y="-9" type="curve"/>
    </contour>
    <contour>
      <point x="265" y="527" type="move" name="top"/>
    </contour>
    <contour>
      <point x="265" y="0" type="move" name="bottom"/>
    </contour>
  </outline>
</glyph>
<glyph name="X" format="1">
  <advance width="525"/>
  <unicode hex="0058"/>
  <outline>
    <contour>
      <point x="39" y="-6"/>
      <point x="76" y="-5"/>
      <point x="122" y="0" type="curve"/>
      <point x="128" y="25"/>
      <point x="163" y="85"/>
      <point x="244" y="188" type="curve"/>
      <point x="306" y="95"/>
      <point x="358" y="13"/>
      <point x="366" y="-6" type="curve"/>
      <point x="430" y="-6"/>
      <point x="479" y="-1"/>
      <point x="528" y="15" type="curve"/>
      <point x="502" y="35"/>
      <point x="409" y="164"/>
      <point x="325" y="289" type="curve"/>
      <point x="383" y="365"/>
      <point x="462" y="465"/>
      <point x="525" y="533" type="curve"/>
      <point x="483" y="533"/>
      <point x="446" y="532"/>
      <point x="399" y="527" type="curve"/>
      <point x="393" y="503"/>
      <point x="360" y="446"/>
      <point x="285" y="349" type="curve"/>
      <point x="226" y="438"/>
      <point x="178" y="515"/>
      <point x="170" y="533" type="curve"/>
      <point x="106" y="533"/>
      <point x="56" y="528"/>
      <point x="8" y="512" type="curve"/>
      <point x="33" y="493"/>
      <point x="121" y="370"/>
      <point x="204" y="248" type="curve"/>
      <point x="146" y="172"/>
      <point x="62" y="65"/>
      <point x="-4" y="-6" type="curve"/>
    </contour>
  </outline>
</glyph>
<glyph name="Y" format="1">
  <advance width="504"/>
  <unicode hex="0059"/>
  <outline>
    <contour>
      <point x="285" y="-6"/>
      <point x="309" y="-4"/>
      <point x="332" y="0" type="curve"/>
      <point x="321" y="25"/>
      <point x="316" y="88"/>
      <point x="316" y="188" type="curve"/>
      <point x="361" y="288"/>
      <point x="432" y="436"/>
      <point x="499" y="533" type="curve"/>
      <point x="457" y="533"/>
      <point x="422" y="532"/>
      <point x="375" y="527" type="curve"/>
      <point x="373" y="495"/>
      <point x="346" y="417"/>
      <point x="280" y="288" type="curve"/>
      <point x="218" y="403"/>
      <point x="175" y="510"/>
      <point x="168" y="533" type="curve"/>
      <point x="106" y="533"/>
      <point x="54" y="528"/>
      <point x="5" y="512" type="curve"/>
      <point x="30" y="488"/>
      <point x="124" y="335"/>
      <point x="190" y="187" type="curve"/>
      <point x="189" y="116"/>
      <point x="185" y="42"/>
      <point x="180" y="0" type="curve"/>
      <point x="211" y="-4"/>
      <point x="238" y="-6"/>
      <point x="262" y="-6" type="curve" smooth="yes"/>
    </contour>
    <contour>
      <point x="273" y="527" type="move" name="top"/>
    </contour>
    <contour>
      <point x="253" y="0" type="move" name="bottom"/>
    </contour>
    <contour>
      <point x="20" y="527" type="move" name="topleft"/>
    </contour>
  </outline>
</glyph>
<glyph name="asciicircum" format="1">
  <advance width="398"/>
  <unicode hex="005E"/>
  <outline>
    <contour>
      <point x="198" y="491" type="line"/>
      <point x="310" y="351" type="line"/>
      <point x="340" y="369"/>
      <point x="361" y="388"/>
      <point x="388" y="423" type="curve"/>
      <point x="328" y="481"/>
      <point x="279" y="533"/>
      <point x="219" y="605" type="curve"/>
      <point x="179" y="605" type="line"/>
      <point x="119" y="533"/>
      <point x="70" y="481"/>
      <point x="10" y="423" type="curve"/>
      <point x="38" y="388"/>
      <point x="58" y="369"/>
      <point x="88" y="351" type="curve"/>
    </contour>
  </outline>
</glyph>
<glyph name="underscore" format="1">
  <advance width="492"/>
  <unicode hex="005F"/>
  <outline>
    <contour>
      <point x="92" y="-124"/>
      <point x="175" y="-115"/>
      <point x="253" y="-115" type="curve" smooth="yes"/>
      <point x="317" y="-115"/>
      <point x="381" y="-116"/>
      <point x="454" y="-120" type="curve"/>
      <point x="454" y="-72"/>
      <point x="449" y="-30"/>
      <point x="432" y="19" type="curve"/>
      <point x="398" y="9"/>
      <point x="315" y="0"/>
      <point x="238" y="0" type="curve" smooth="yes"/>
      <point x="174" y="0"/>
      <point x="110" y="1"/>
      <point x="38" y="5" type="curve"/>
      <point x="38" y="-44"/>
      <point x="43" y="-86"/>
      <point x="59" y="-134" type="curve"/>
    </contour>
  </outline>
</glyph>
<glyph name="a" format="1">
  <advance width="437"/>
  <unicode hex="0061"/>
  <outline>
    <contour>
      <point x="164" y="-11"/>
      <point x="216" y="8"/>
      <point x="262" y="37" type="curve"/>
      <point x="271" y="17"/>
      <point x="283" y="1"/>
      <point x="302" y="-11" type="curve"/>
      <point x="342" y="-7"/>
      <point x="382" y="7"/>
      <point x="413" y="27" type="curve"/>
      <point x="382" y="60"/>
      <point x="374" y="83"/>
      <point x="374" y="132" type="curve" smooth="yes"/>
      <point x="374" y="179"/>
      <point x="383" y="231"/>
      <point x="383" y="284" type="curve" smooth="yes"/>
      <point x="383" y="370"/>
      <point x="329" y="418"/>
      <point x="229" y="418" type="curve" smooth="yes"/>
      <point x="158" y="418"/>
      <point x="83" y="378"/>
      <point x="42" y="319" type="curve"/>
      <point x="50" y="260" type="line"/>
      <point x="84" y="283"/>
      <point x="134" y="297"/>
      <point x="179" y="297" type="curve" smooth="yes"/>
      <point x="231" y="297"/>
      <point x="254" y="277"/>
      <point x="257" y="228" type="curve"/>
      <point x="100" y="215"/>
      <point x="23" y="168"/>
      <point x="23" y="83" type="curve" smooth="yes"/>
      <point x="23" y="28"/>
      <point x="55" y="-11"/>
      <point x="123" y="-11" type="curve" smooth="yes"/>
    </contour>
    <contour>
      <point x="165" y="67"/>
      <point x="155" y="88"/>
      <point x="155" y="106" type="curve" smooth="yes"/>
      <point x="155" y="146"/>
      <point x="191" y="171"/>
      <point x="258" y="178" type="curve"/>
      <point x="256" y="146"/>
      <point x="252" y="125"/>
      <point x="252" y="95" type="curve" smooth="yes"/>
      <point x="252" y="85" type="line"/>
      <point x="229" y="70"/>
      <point x="202" y="60"/>
      <point x="179" y="57" type="curve"/>
    </contour>
    <contour>
      <point x="356" y="0" type="move" name="ogonek"/>
    </contour>
    <contour>
      <point x="219" y="0" type="move" name="bottom"/>
    </contour>
    <contour>
      <point x="219" y="407" type="move" name="top"/>
    </contour>
  </outline>
</glyph>
<glyph name="b" format="1">
  <advance width="482"/>
  <unicode hex="0062"/>
  <outline>
    <contour>
      <point x="381" y="-9"/>
      <point x="454" y="70"/>
      <point x="454" y="212" type="curve" smooth="yes"/>
      <point x="454" y="341"/>
      <point x="398" y="410"/>
      <point x="294" y="410" type="curve" smooth="yes"/>
      <point x="250" y="410"/>
      <point x="206" y="394"/>
      <point x="169" y="367" type="curve"/>
      <point x="172" y="441"/>
      <point x="176" y="517"/>
      <point x="179" y="547" type="curve"/>
      <point x="119" y="547"/>
      <point x="76" y="541"/>
      <point x="29" y="527" type="curve"/>
      <point x="41" y="488"/>
      <point x="46" y="427"/>
      <point x="46" y="333" type="curve" smooth="yes"/>
      <point x="46" y="242"/>
      <point x="42" y="76"/>
      <point x="36" y="5" type="curve"/>
      <point x="58" y="2"/>
      <point x="75" y="0"/>
      <point x="93" y="0" type="curve"/>
      <point x="117" y="39" type="line"/>
      <point x="150" y="9"/>
      <point x="196" y="-9"/>
      <point x="249" y="-9" type="curve" smooth="yes"/>
    </contour>
    <contour>
      <point x="208" y="52"/>
      <point x="189" y="62"/>
      <point x="172" y="80" type="curve"/>
      <point x="167" y="104"/>
      <point x="165" y="137"/>
      <point x="165" y="192" type="curve" smooth="yes"/>
      <point x="165" y="209"/>
      <point x="166" y="244"/>
      <point x="167" y="285" type="curve"/>
      <point x="193" y="300"/>
      <point x="226" y="308"/>
      <point x="255" y="308" type="curve"/>
      <point x="300" y="286"/>
      <point x="324" y="238"/>
      <point x="324" y="170" type="curve" smooth="yes"/>
      <point x="324" y="93"/>
      <point x="291" y="52"/>
      <point x="230" y="52" type="curve" smooth="yes"/>
    </contour>
    <contour>
      <point x="244" y="407" type="move" name="top"/>
    </contour>
    <contour>
      <point x="244" y="0" type="move" name="bottom"/>
    </contour>
  </outline>
</glyph>
<glyph name="e" format="1">
  <advance width="468"/>
  <unicode hex="0065"/>
  <outline>
    <contour>
      <point x="296" y="-11"/>
      <point x="377" y="25"/>
      <point x="420" y="78" type="curve"/>
      <point x="406" y="137" type="line"/>
      <point x="368" y="112"/>
      <point x="316" y="98"/>
      <point x="259" y="98" type="curve" smooth="yes"/>
      <point x="203" y="98"/>
      <point x="172" y="119"/>
      <point x="160" y="168" type="curve"/>
      <point x="258" y="170"/>
      <point x="364" y="184"/>
      <point x="435" y="201" type="curve"/>
      <point x="435" y="344"/>
      <point x="374" y="418"/>
      <point x="258" y="418" type="curve" smooth="yes"/>
      <point x="121" y="418"/>
      <point x="27" y="325"/>
      <point x="27" y="191" type="curve" smooth="yes"/>
      <point x="27" y="61"/>
      <point x="96" y="-11"/>
      <point x="218" y="-11" type="curve" smooth="yes"/>
    </contour>
    <contour>
      <point x="156" y="277"/>
      <point x="177" y="329"/>
      <point x="211" y="352" type="curve"/>
      <point x="260" y="352"/>
      <point x="295" y="309"/>
      <point x="297" y="254" type="curve"/>
      <point x="263" y="238"/>
      <point x="207" y="225"/>
      <point x="155" y="219" type="curve"/>
    </contour>
    <contour>
      <point x="321" y="10" type="move" name="ogonek"/>
    </contour>
    <contour>
      <point x="227" y="0" type="move" name="bottom"/>
    </contour>
    <contour>
      <point x="237" y="407" type="move" name="top"/>
    </contour>
  </outline>
</glyph>
<glyph name="f" format="1">
  <advance width="316"/>
  <unicode hex="0066"/>
  <outline>
    <contour>
      <point x="173" y="-85"/>
      <point x="208" y="-31"/>
      <point x="208" y="63" type="curve" smooth="yes"/>
      <point x="208" y="108"/>
      <point x="201" y="177"/>
      <point x="201" y="283" type="curve" smooth="yes"/>
      <point x="201" y="326" type="line"/>
      <point x="239" y="325"/>
      <point x="267" y="321"/>
      <point x="290" y="314" type="curve"/>
      <point x="302" y="344"/>
      <point x="307" y="369"/>
      <point x="307" y="404" type="curve"/>
      <point x="284" y="400"/>
      <point x="248" y="397"/>
      <point x="203" y="396" type="curve"/>
      <point x="207" y="464"/>
      <point x="216" y="488"/>
      <point x="236" y="503" type="curve"/>
      <point x="265" y="498"/>
      <point x="295" y="482"/>
      <point x="350" y="446" type="curve"/>
      <point x="363" y="469"/>
      <point x="379" y="534"/>
      <point x="379" y="567" type="curve"/>
      <point x="347" y="579"/>
      <point x="309" y="585"/>
      <point x="266" y="585" type="curve" smooth="yes"/>
      <point x="167" y="585"/>
      <point x="93" y="516"/>
      <point x="74" y="410" type="curve"/>
      <point x="53" y="394"/>
      <point x="31" y="381"/>
      <point x="6" y="368" type="curve"/>
      <point x="6" y="332"/>
      <point x="16" y="324"/>
      <point x="74" y="323" type="curve"/>
      <point x="89" y="3"/>
      <point x="83" y="-58"/>
      <point x="34" y="-130" type="curve"/>
      <point x="67" y="-159" type="line"/>
    </contour>
    <contour>
      <point x="152" y="407" type="move" name="top"/>
    </contour>
    <contour>
      <point x="152" y="0" type="move" name="bottom"/>
    </contour>
  </outline>
</glyph>
<glyph name="g" format="1">
  <advance width="448"/>
  <unicode hex="0067"/>
  <outline>
    <contour>
      <point x="336" y="-180"/>
      <point x="433" y="-119"/>
      <point x="433" y="-38" type="curve" smooth="yes"/>
      <point x="433" y="27"/>
      <point x="388" y="63"/>
      <point x="303" y="70" type="curve" smooth="yes"/>
      <point x="115" y="80" type="line"/>
      <point x="115" y="103"/>
      <point x="151" y="119"/>
      <point x="208" y="119" type="curve" smooth="yes"/>
      <point x="322" y="119"/>
      <point x="403" y="184"/>
      <point x="403" y="277" type="curve" smooth="yes"/>
      <point x="403" y="299"/>
      <point x="399" y="319"/>
      <point x="390" y="337" type="curve"/>
      <point x="412" y="340"/>
      <point x="432" y="346"/>
      <point x="448" y="354" type="curve"/>
      <point x="448" y="379"/>
      <point x="436" y="424"/>
      <point x="422" y="454" type="curve"/>
      <point x="390" y="427"/>
      <point x="357" y="406"/>
      <point x="330" y="398" type="curve"/>
      <point x="304" y="411"/>
      <point x="272" y="418"/>
      <point x="236" y="418" type="curve" smooth="yes"/>
      <point x="123" y="418"/>
      <point x="45" y="353"/>
      <point x="45" y="260" type="curve" smooth="yes"/>
      <point x="45" y="210"/>
      <point x="68" y="170"/>
      <point x="106" y="145" type="curve"/>
      <point x="63" y="124"/>
      <point x="36" y="90"/>
      <point x="36" y="49" type="curve" smooth="yes"/>
      <point x="36" y="23"/>
      <point x="48" y="1"/>
      <point x="68" y="-13" type="curve"/>
      <point x="39" y="-48"/>
      <point x="22" y="-93"/>
      <point x="22" y="-137" type="curve"/>
      <point x="61" y="-164"/>
      <point x="127" y="-180"/>
      <point x="206" y="-180" type="curve" smooth="yes"/>
    </contour>
    <contour>
      <point x="180" y="-105"/>
      <point x="141" y="-89"/>
      <point x="117" y="-61" type="curve"/>
      <point x="119" y="-50"/>
      <point x="123" y="-39"/>
      <point x="128" y="-29" type="curve"/>
      <point x="267" y="-37" type="line" smooth="yes"/>
      <point x="313" y="-39"/>
      <point x="330" y="-44"/>
      <point x="330" y="-64" type="curve" smooth="yes"/>
      <point x="330" y="-86"/>
      <point x="290" y="-105"/>
      <point x="231" y="-105" type="curve" smooth="yes"/>
    </contour>
    <contour>
      <point x="187" y="181"/>
      <point x="162" y="207"/>
      <point x="162" y="248" type="curve" smooth="yes"/>
      <point x="162" y="291"/>
      <point x="191" y="322"/>
      <point x="231" y="322" type="curve"/>
      <point x="266" y="310"/>
      <point x="287" y="284"/>
      <point x="287" y="246" type="curve" smooth="yes"/>
      <point x="287" y="205"/>
      <point x="263" y="181"/>
      <point x="223" y="181" type="curve" smooth="yes"/>
    </contour>
    <contour>
      <point x="228" y="407" type="move" name="top"/>
    </contour>
    <contour>
      <point x="227" y="0" type="move" name="bottom"/>
    </contour>
  </outline>
</glyph>
<glyph name="k" format="1">
  <advance width="466"/>
  <unicode hex="006B"/>
  <outline>
    <contour>
      <point x="150" y="-6"/>
      <point x="173" y="-4"/>
      <point x="194" y="0" type="curve"/>
      <point x="185" y="20"/>
      <point x="178" y="63"/>
      <point x="175" y="125" type="curve"/>
      <point x="217" y="172" type="line"/>
      <point x="270" y="90"/>
      <point x="311" y="26"/>
      <point x="328" y="-6" type="curve"/>
      <point x="389" y="-6"/>
      <point x="445" y="-1"/>
      <point x="485" y="15" type="curve"/>
      <point x="437" y="51"/>
      <point x="367" y="156"/>
      <point x="303" y="266" type="curve"/>
      <point x="355" y="320"/>
      <point x="407" y="374"/>
      <point x="453" y="418" type="curve"/>
      <point x="412" y="418"/>
      <point x="375" y="416"/>
      <point x="325" y="407" type="curve"/>
      <point x="325" y="383"/>
      <point x="298" y="348"/>
      <point x="173" y="215" type="curve"/>
      <point x="173" y="227" type="line" smooth="yes"/>
      <point x="173" y="338"/>
      <point x="180" y="477"/>
      <point x="189" y="547" type="curve"/>
      <point x="130" y="547"/>
      <point x="85" y="541"/>
      <point x="39" y="527" type="curve"/>
      <point x="45" y="468"/>
      <point x="49" y="367"/>
      <point x="49" y="255" type="curve" smooth="yes"/>
      <point x="49" y="171"/>
      <point x="46" y="73"/>
      <point x="42" y="0" type="curve"/>
      <point x="74" y="-4"/>
      <point x="102" y="-6"/>
      <point x="128" y="-6" type="curve" smooth="yes"/>
    </contour>
    <contour>
      <point x="240" y="407" type="move" name="top"/>
    </contour>
    <contour>
      <point x="240" y="0" type="move" name="bottom"/>
    </contour>
  </outline>
</glyph>
<glyph name="l" format="1">
  <advance width="238"/>
  <unicode hex="006C"/>
  <outline>
    <contour>
      <point x="150" y="-9"/>
      <point x="187" y="0"/>
      <point x="216" y="27" type="curve"/>
      <point x="185" y="61"/>
      <point x="177" y="84"/>
      <point x="177" y="192" type="curve" smooth="yes"/>
      <point x="177" y="356"/>
      <point x="182" y="485"/>
      <point x="189" y="547" type="curve"/>
      <point x="137" y="547"/>
      <point x="92" y="543"/>
      <point x="39" y="527" type="curve"/>
      <point x="52" y="480"/>
      <point x="58" y="406"/>
      <point x="58" y="297" type="curve" smooth="yes"/>
      <point x="58" y="208"/>
      <point x="54" y="144"/>
      <point x="54" y="73" type="curve" smooth="yes"/>
      <point x="54" y="10"/>
      <point x="75" y="-9"/>
      <point x="128" y="-9" type="curve" smooth="yes"/>
    </contour>
    <contour>
      <point x="123" y="280" type="move" name="center"/>
    </contour>
    <contour>
      <point x="123" y="527" type="move" name="top"/>
    </contour>
    <contour>
      <point x="280" y="407" type="move" name="topright"/>
    </contour>
    <contour>
      <point x="123" y="0" type="move" name="bottom"/>
    </contour>
  </outline>
</glyph>
<glyph name="n" format="1">
  <advance width="513"/>
  <unicode hex="006E"/>
  <outline>
    <contour>
      <point x="179" y="-6"/>
      <point x="204" y="-4"/>
      <point x="223" y="0" type="curve"/>
      <point x="210" y="29"/>
      <point x="203" y="82"/>
      <point x="203" y="150" type="curve" smooth="yes"/>
      <point x="203" y="199"/>
      <point x="205" y="242"/>
      <point x="207" y="277" type="curve"/>
      <point x="223" y="291"/>
      <point x="242" y="297"/>
      <point x="268" y="297" type="curve" smooth="yes"/>
      <point x="311" y="297"/>
      <point x="328" y="275"/>
      <point x="328" y="222" type="curve" smooth="yes"/>
      <point x="328" y="143"/>
      <point x="325" y="58"/>
      <point x="321" y="0" type="curve"/>
      <point x="344" y="-4"/>
      <point x="370" y="-6"/>
      <point x="390" y="-6" type="curve" smooth="yes"/>
      <point x="418" y="-6"/>
      <point x="454" y="-4"/>
      <point x="473" y="0" type="curve"/>
      <point x="460" y="29"/>
      <point x="453" y="82"/>
      <point x="453" y="150" type="curve" smooth="yes"/>
      <point x="453" y="181"/>
      <point x="457" y="251"/>
      <point x="457" y="280" type="curve" smooth="yes"/>
      <point x="457" y="362"/>
      <point x="427" y="418"/>
      <point x="340" y="418" type="curve" smooth="yes"/>
      <point x="288" y="418"/>
      <point x="241" y="394"/>
      <point x="206" y="355" type="curve"/>
      <point x="200" y="392"/>
      <point x="179" y="414"/>
      <point x="136" y="414" type="curve" smooth="yes"/>
      <point x="112" y="414"/>
      <point x="71" y="405"/>
      <point x="39" y="378" type="curve"/>
      <point x="70" y="344"/>
      <point x="78" y="321"/>
      <point x="78" y="213" type="curve" smooth="yes"/>
      <point x="78" y="139"/>
      <point x="75" y="57"/>
      <point x="71" y="0" type="curve"/>
      <point x="94" y="-4"/>
      <point x="132" y="-6"/>
      <point x="157" y="-6" type="curve" smooth="yes"/>
    </contour>
    <contour>
      <point x="265" y="407" type="move" name="top"/>
    </contour>
    <contour>
      <point x="257" y="0" type="move" name="bottom"/>
    </contour>
  </outline>
</glyph>
<glyph name="q" format="1">
  <advance width="506"/>
  <unicode hex="0071"/>
  <outline>
    <contour>
      <point x="363" y="-180"/>
      <point x="408" y="-176"/>
      <point x="454" y="-165" type="curve"/>
      <point x="447" y="-105"/>
      <point x="442" y="48"/>
      <point x="442" y="213" type="curve" smooth="yes"/>
      <point x="442" y="321"/>
      <point x="450" y="344"/>
      <point x="481" y="378" type="curve"/>
      <point x="451" y="405"/>
      <point x="415" y="414"/>
      <point x="393" y="414" type="curve" smooth="yes"/>
      <point x="359" y="414"/>
      <point x="338" y="402"/>
      <point x="327" y="379" type="curve"/>
      <point x="291" y="405"/>
      <point x="251" y="418"/>
      <point x="206" y="418" type="curve" smooth="yes"/>
      <point x="92" y="418"/>
      <point x="32" y="342"/>
      <point x="32" y="195" type="curve" smooth="yes"/>
      <point x="32" y="59"/>
      <point x="90" y="-12"/>
      <point x="201" y="-12" type="curve" smooth="yes"/>
      <point x="244" y="-12"/>
      <point x="287" y="7"/>
      <point x="322" y="38" type="curve"/>
      <point x="320" y="-62"/>
      <point x="314" y="-132"/>
      <point x="304" y="-180" type="curve"/>
    </contour>
    <contour>
      <point x="191" y="67"/>
      <point x="163" y="114"/>
      <point x="163" y="181" type="curve" smooth="yes"/>
      <point x="163" y="265"/>
      <point x="194" y="306"/>
      <point x="257" y="306" type="curve" smooth="yes"/>
      <point x="279" y="306"/>
      <point x="300" y="300"/>
      <point x="319" y="291" type="curve"/>
      <point x="320" y="243"/>
      <point x="324" y="183"/>
      <point x="324" y="112" type="curve" smooth="yes"/>
      <point x="324" y="100" type="line"/>
      <point x="297" y="77"/>
      <point x="265" y="60"/>
      <point x="237" y="57" type="curve"/>
    </contour>
    <contour>
      <point x="260" y="407" type="move" name="top"/>
    </contour>
    <contour>
      <point x="260" y="0" type="move" name="bottom"/>
    </contour>
  </outline>
</glyph>
<glyph name="r" format="1">
  <advance width="348"/>
  <unicode hex="0072"/>
  <outline>
    <contour>
      <point x="174" y="-6"/>
      <point x="204" y="-4"/>
      <point x="223" y="0" type="curve"/>
      <point x="210" y="29"/>
      <point x="203" y="82"/>
      <point x="203" y="150" type="curve" smooth="yes"/>
      <point x="203" y="191"/>
      <point x="205" y="226"/>
      <point x="206" y="258" type="curve"/>
      <point x="233" y="276"/>
      <point x="283" y="291"/>
      <point x="339" y="282" type="curve"/>
      <point x="339" y="329"/>
      <point x="331" y="392"/>
      <point x="321" y="423" type="curve"/>
      <point x="273" y="409"/>
      <point x="239" y="382"/>
      <point x="207" y="342" type="curve"/>
      <point x="204" y="387"/>
      <point x="181" y="414"/>
      <point x="128" y="414" type="curve" smooth="yes"/>
      <point x="106" y="414"/>
      <point x="69" y="405"/>
      <point x="39" y="378" type="curve"/>
      <point x="70" y="344"/>
      <point x="78" y="321"/>
      <point x="78" y="213" type="curve" smooth="yes"/>
      <point x="78" y="139"/>
      <point x="75" y="57"/>
      <point x="71" y="0" type="curve"/>
      <point x="101" y="-4"/>
      <point x="126" y="-6"/>
      <point x="149" y="-6" type="curve" smooth="yes"/>
    </contour>
    <contour>
      <point x="197" y="407" type="move" name="top"/>
    </contour>
    <contour>
      <point x="144" y="0" type="move" name="bottom"/>
    </contour>
  </outline>
</glyph>
<glyph name="t" format="1">
  <advance width="330"/>
  <unicode hex="0074"/>
  <outline>
    <contour>
      <point x="227" y="-9"/>
      <point x="281" y="16"/>
      <point x="310" y="53" type="curve"/>
      <point x="304" y="96" type="line"/>
      <point x="283" y="92"/>
      <point x="256" y="88"/>
      <point x="225" y="87" type="curve"/>
      <point x="218" y="131"/>
      <point x="215" y="192"/>
      <point x="215" y="252" type="curve" smooth="yes"/>
      <point x="215" y="278"/>
      <point x="216" y="302"/>
      <point x="218" y="326" type="curve"/>
      <point x="255" y="325"/>
      <point x="282" y="321"/>
      <point x="301" y="314" type="curve"/>
      <point x="313" y="342"/>
      <point x="318" y="367"/>
      <point x="318" y="404" type="curve"/>
      <point x="299" y="400"/>
      <point x="268" y="397"/>
      <point x="220" y="396" type="curve"/>
      <point x="219" y="421"/>
      <point x="217" y="447"/>
      <point x="215" y="466" type="curve"/>
      <point x="161" y="469" type="line"/>
      <point x="114" y="426"/>
      <point x="70" y="393"/>
      <point x="17" y="368" type="curve"/>
      <point x="17" y="333"/>
      <point x="32" y="323"/>
      <point x="89" y="323" type="curve"/>
      <point x="90" y="317"/>
      <point x="91" y="305"/>
      <point x="91" y="297" type="curve" smooth="yes"/>
      <point x="91" y="215"/>
      <point x="87" y="156"/>
      <point x="87" y="90" type="curve" smooth="yes"/>
      <point x="87" y="16"/>
      <point x="111" y="-9"/>
      <point x="175" y="-9" type="curve" smooth="yes"/>
    </contour>
    <contour>
      <point x="159" y="204" type="move" name="center"/>
    </contour>
    <contour>
      <point x="174" y="407" type="move" name="top"/>
    </contour>
    <contour>
      <point x="337" y="407" type="move" name="topright"/>
    </contour>
    <contour>
      <point x="164" y="0" type="move" name="bottom"/>
    </contour>
  </outline>
</glyph>
<glyph name="u" format="1">
  <advance width="490"/>
  <unicode hex="0075"/>
  <outline>
    <contour>
      <point x="227" y="-11"/>
      <point x="275" y="11"/>
      <point x="308" y="48" type="curve"/>
      <point x="315" y="23"/>
      <point x="327" y="3"/>
      <point x="347" y="-11" type="curve"/>
      <point x="390" y="-6"/>
      <point x="433" y="11"/>
      <point x="466" y="35" type="curve"/>
      <point x="435" y="73"/>
      <point x="427" y="99"/>
      <point x="427" y="157" type="curve" smooth="yes"/>
      <point x="427" y="193"/>
      <point x="433" y="331"/>
      <point x="439" y="417" type="curve"/>
      <point x="380" y="417"/>
      <point x="335" y="411"/>
      <point x="289" y="397" type="curve"/>
      <point x="302" y="368"/>
      <point x="308" y="324"/>
      <point x="308" y="257" type="curve" smooth="yes"/>
      <point x="308" y="231"/>
      <point x="305" y="178"/>
      <point x="304" y="121" type="curve"/>
      <point x="284" y="107"/>
      <point x="262" y="100"/>
      <point x="235" y="100" type="curve" smooth="yes"/>
      <point x="198" y="100"/>
      <point x="183" y="117"/>
      <point x="183" y="167" type="curve" smooth="yes"/>
      <point x="183" y="267"/>
      <point x="185" y="364"/>
      <point x="189" y="417" type="curve"/>
      <point x="130" y="417"/>
      <point x="85" y="411"/>
      <point x="39" y="397" type="curve"/>
      <point x="52" y="368"/>
      <point x="58" y="324"/>
      <point x="58" y="257" type="curve" smooth="yes"/>
      <point x="58" y="226"/>
      <point x="54" y="156"/>
      <point x="54" y="127" type="curve" smooth="yes"/>
      <point x="54" y="35"/>
      <point x="96" y="-11"/>
      <point x="179" y="-11" type="curve" smooth="yes"/>
    </contour>
    <contour>
      <point x="403" y="0" type="move" name="ogonek"/>
    </contour>
    <contour>
      <point x="250" y="407" type="move" name="top"/>
    </contour>
    <contour>
      <point x="479" y="407" type="move" name="topright"/>
    </contour>
    <contour>
      <point x="253" y="0" type="move" name="bottom"/>
    </contour>
  </outline>
</glyph>
<glyph name="v" format="1">
  <advance width="448"/>
  <unicode hex="0076"/>
  <outline>
    <contour>
      <point x="318" y="27" type="line"/>
      <point x="349" y="140"/>
      <point x="398" y="304"/>
      <point x="443" y="413" type="curve"/>
      <point x="408" y="413"/>
      <point x="371" y="411"/>
      <point x="329" y="402" type="curve"/>
      <point x="344" y="370"/>
      <point x="331" y="317"/>
      <point x="263" y="95" type="curve"/>
      <point x="226" y="173"/>
      <point x="179" y="327"/>
      <point x="163" y="413" type="curve"/>
      <point x="104" y="413"/>
      <point x="49" y="408"/>
      <point x="5" y="392" type="curve"/>
      <point x="108" y="265"/>
      <point x="106" y="-9"/>
      <point x="220" y="-9" type="curve"/>
    </contour>
    <contour>
      <point x="228" y="407" type="move" name="top"/>
    </contour>
    <contour>
      <point x="228" y="0" type="move" name="bottom"/>
    </contour>
  </outline>
</glyph>
<glyph name="x" format="1">
  <advance width="463"/>
  <unicode hex="0078"/>
  <outline>
    <contour>
      <point x="41" y="-6"/>
      <point x="78" y="-5"/>
      <point x="125" y="0" type="curve"/>
      <point x="129" y="17"/>
      <point x="141" y="42"/>
      <point x="206" y="132" type="curve"/>
      <point x="242" y="81"/>
      <point x="274" y="31"/>
      <point x="295" y="-6" type="curve"/>
      <point x="359" y="-6"/>
      <point x="415" y="-1"/>
      <point x="459" y="15" type="curve"/>
      <point x="429" y="43"/>
      <point x="359" y="133"/>
      <point x="292" y="227" type="curve"/>
      <point x="338" y="287"/>
      <point x="396" y="361"/>
      <point x="443" y="413" type="curve"/>
      <point x="405" y="413"/>
      <point x="368" y="411"/>
      <point x="321" y="402" type="curve"/>
      <point x="317" y="387"/>
      <point x="307" y="364"/>
      <point x="250" y="287" type="curve"/>
      <point x="218" y="334"/>
      <point x="190" y="378"/>
      <point x="170" y="413" type="curve"/>
      <point x="105" y="413"/>
      <point x="50" y="408"/>
      <point x="7" y="392" type="curve"/>
      <point x="37" y="365"/>
      <point x="102" y="282"/>
      <point x="164" y="194" type="curve"/>
      <point x="117" y="132"/>
      <point x="54" y="50"/>
      <point x="3" y="-6" type="curve"/>
    </contour>
    <contour>
      <point x="233" y="407" type="move" name="top"/>
    </contour>
    <contour>
      <point x="233" y="0" type="move" name="bottom"/>
    </contour>
  </outline>
</glyph>
<glyph name="z" format="1">
  <advance width="431"/>
  <unicode hex="007A"/>
  <outline>
    <contour>
      <point x="389" y="20"/>
      <point x="397" y="90"/>
      <point x="397" y="133" type="curve"/>
      <point x="361" y="116"/>
      <point x="302" y="107"/>
      <point x="249" y="107" type="curve" smooth="yes"/>
      <point x="233" y="107"/>
      <point x="214" y="109"/>
      <point x="199" y="110" type="curve"/>
      <point x="268" y="192"/>
      <point x="365" y="291"/>
      <point x="380" y="317" type="curve"/>
      <point x="386" y="327"/>
      <point x="389" y="341"/>
      <point x="389" y="357" type="curve" smooth="yes"/>
      <point x="389" y="376"/>
      <point x="382" y="405"/>
      <point x="359" y="429" type="curve"/>
      <point x="326" y="405"/>
      <point x="306" y="399"/>
      <point x="208" y="399" type="curve" smooth="yes"/>
      <point x="152" y="399"/>
      <point x="76" y="403"/>
      <point x="32" y="410" type="curve"/>
      <point x="32" y="367"/>
      <point x="43" y="309"/>
      <point x="59" y="269" type="curve"/>
      <point x="81" y="281"/>
      <point x="112" y="287"/>
      <point x="165" y="287" type="curve" smooth="yes"/>
      <point x="209" y="287"/>
      <point x="247" y="285"/>
      <point x="277" y="284" type="curve"/>
      <point x="179" y="174"/>
      <point x="90" y="82"/>
      <point x="35" y="33" type="curve"/>
      <point x="35" y="-3" type="line"/>
      <point x="113" y="2"/>
      <point x="330" y="2"/>
      <point x="378" y="-8" type="curve"/>
    </contour>
    <contour>
      <point x="214" y="407" type="move" name="top"/>
    </contour>
    <contour>
      <point x="214" y="0" type="move" name="bottom"/>
    </contour>
  </outline>
</glyph>
<glyph name="bar" format="1">
  <advance width="352"/>
  <unicode hex="007C"/>
  <outline>
    <contour>
      <point x="212" y="-111"/>
      <point x="239" y="-109"/>
      <point x="264" y="-103" type="curve"/>
      <point x="253" y="-36"/>
      <point x="248" y="50"/>
      <point x="248" y="286" type="curve" smooth="yes"/>
      <point x="248" y="371"/>
      <point x="253" y="558"/>
      <point x="259" y="630" type="curve"/>
      <point x="228" y="636"/>
      <point x="202" y="639"/>
      <point x="179" y="639" type="curve" smooth="yes"/>
      <point x="147" y="639"/>
      <point x="114" y="636"/>
      <point x="87" y="630" type="curve"/>
      <point x="97" y="574"/>
      <point x="103" y="483"/>
      <point x="103" y="286" type="curve" smooth="yes"/>
      <point x="103" y="197"/>
      <point x="97" y="-12"/>
      <point x="92" y="-103" type="curve"/>
      <point x="128" y="-109"/>
      <point x="159" y="-111"/>
      <point x="187" y="-111" type="curve" smooth="yes"/>
    </contour>
  </outline>
</glyph>
<glyph name="cent" format="1">
  <advance width="401"/>
  <unicode hex="00A2"/>
  <outline>
    <contour>
      <point x="254" y="444" type="line"/>
      <point x="256" y="496"/>
      <point x="257" y="542"/>
      <point x="259" y="576" type="curve"/>
      <point x="243" y="580"/>
      <point x="228" y="583"/>
      <point x="214" y="583" type="curve" smooth="yes"/>
      <point x="199" y="583"/>
      <point x="183" y="580"/>
      <point x="169" y="576" type="curve"/>
      <point x="174" y="553"/>
      <point x="177" y="508"/>
      <point x="179" y="444" type="curve"/>
    </contour>
    <contour>
      <point x="234" y="-56"/>
      <point x="250" y="-53"/>
      <point x="264" y="-49" type="curve"/>
      <point x="258" y="-27"/>
      <point x="256" y="16"/>
      <point x="254" y="76" type="curve"/>
      <point x="177" y="76" type="line"/>
      <point x="176" y="27"/>
      <point x="174" y="-17"/>
      <point x="172" y="-49" type="curve"/>
      <point x="190" y="-53"/>
      <point x="205" y="-56"/>
      <point x="219" y="-56" type="curve" smooth="yes"/>
    </contour>
    <component base="c" yOffset="61"/>
  </outline>
</glyph>
<glyph name="brokenbar" format="1">
  <advance width="352"/>
  <unicode hex="00A6"/>
  <outline>
    <contour>
      <point x="141" y="306" type="line"/>
      <point x="172" y="337"/>
      <point x="208" y="365"/>
      <point x="248" y="395" type="curve"/>
      <point x="248" y="453"/>
      <point x="253" y="581"/>
      <point x="259" y="630" type="curve"/>
      <point x="228" y="636"/>
      <point x="202" y="639"/>
      <point x="179" y="639" type="curve" smooth="yes"/>
      <point x="147" y="639"/>
      <point x="114" y="636"/>
      <point x="87" y="630" type="curve"/>
      <point x="97" y="577"/>
      <point x="103" y="492"/>
      <point x="103" y="306" type="curve"/>
    </contour>
    <contour>
      <point x="200" y="-111"/>
      <point x="232" y="-108"/>
      <point x="259" y="-102" type="curve"/>
      <point x="249" y="-49"/>
      <point x="243" y="36"/>
      <point x="243" y="222" type="curve"/>
      <point x="206" y="222" type="line"/>
      <point x="175" y="191"/>
      <point x="138" y="163"/>
      <point x="99" y="133" type="curve"/>
      <point x="99" y="76"/>
      <point x="93" y="-53"/>
      <point x="87" y="-102" type="curve"/>
      <point x="118" y="-108"/>
      <point x="144" y="-111"/>
      <point x="168" y="-111" type="curve" smooth="yes"/>
    </contour>
  </outline>
</glyph>
<glyph name="section" format="1">
  <advance width="467"/>
  <unicode hex="00A7"/>
  <outline>
    <contour>
      <point x="350" y="-188"/>
      <point x="419" y="-139"/>
      <point x="419" y="-50" type="curve" smooth="yes"/>
      <point x="419" y="-2"/>
      <point x="398" y="36"/>
      <point x="354" y="67" type="curve"/>
      <point x="398" y="90"/>
      <point x="419" y="129"/>
      <point x="419" y="178" type="curve" smooth="yes"/>
      <point x="419" y="340"/>
      <point x="175" y="334"/>
      <point x="175" y="415" type="curve" smooth="yes"/>
      <point x="175" y="435"/>
      <point x="190" y="453"/>
      <point x="210" y="457" type="curve"/>
      <point x="248" y="457"/>
      <point x="307" y="428"/>
      <point x="363" y="383" type="curve"/>
      <point x="385" y="411"/>
      <point x="404" y="468"/>
      <point x="404" y="508" type="curve"/>
      <point x="363" y="522"/>
      <point x="310" y="530"/>
      <point x="250" y="530" type="curve" smooth="yes"/>
      <point x="130" y="530"/>
      <point x="50" y="474"/>
      <point x="50" y="391" type="curve" smooth="yes"/>
      <point x="50" y="343"/>
      <point x="72" y="305"/>
      <point x="120" y="272" type="curve"/>
      <point x="75" y="248"/>
      <point x="50" y="209"/>
      <point x="50" y="163" type="curve" smooth="yes"/>
      <point x="50" y="7"/>
      <point x="294" y="3"/>
      <point x="294" y="-70" type="curve" smooth="yes"/>
      <point x="294" y="-101"/>
      <point x="265" y="-118"/>
      <point x="214" y="-118" type="curve" smooth="yes"/>
      <point x="151" y="-118"/>
      <point x="94" y="-101"/>
      <point x="62" y="-73" type="curve"/>
      <point x="51" y="-98"/>
      <point x="47" y="-121"/>
      <point x="47" y="-155" type="curve"/>
      <point x="94" y="-176"/>
      <point x="154" y="-188"/>
      <point x="220" y="-188" type="curve" smooth="yes"/>
    </contour>
    <contour>
      <point x="197" y="144"/>
      <point x="176" y="162"/>
      <point x="176" y="187" type="curve" smooth="yes"/>
      <point x="176" y="206"/>
      <point x="188" y="222"/>
      <point x="207" y="228" type="curve"/>
      <point x="274" y="197"/>
      <point x="294" y="181"/>
      <point x="294" y="158" type="curve" smooth="yes"/>
      <point x="294" y="138"/>
      <point x="283" y="123"/>
      <point x="261" y="116" type="curve"/>
    </contour>
  </outline>
</glyph>
<glyph name="ordfeminine" format="1">
  <advance width="345"/>
  <unicode hex="00AA"/>
  <outline>
    <contour>
      <point x="134" y="293"/>
      <point x="169" y="304"/>
      <point x="201" y="324" type="curve"/>
      <point x="207" y="311"/>
      <point x="217" y="301"/>
      <point x="230" y="293" type="curve"/>
      <point x="259" y="295"/>
      <point x="288" y="304"/>
      <point x="311" y="318" type="curve"/>
      <point x="290" y="339"/>
      <point x="284" y="354"/>
      <point x="284" y="386" type="curve" smooth="yes"/>
      <point x="284" y="416"/>
      <point x="290" y="450"/>
      <point x="290" y="485" type="curve" smooth="yes"/>
      <point x="290" y="541"/>
      <point x="251" y="572"/>
      <point x="180" y="572" type="curve" smooth="yes"/>
      <point x="129" y="572"/>
      <point x="76" y="546"/>
      <point x="46" y="507" type="curve"/>
      <point x="57" y="459" type="line"/>
      <point x="79" y="478"/>
      <point x="113" y="489"/>
      <point x="144" y="489" type="curve" smooth="yes"/>
      <point x="178" y="489"/>
      <point x="194" y="476"/>
      <point x="197" y="446" type="curve"/>
      <point x="87" y="438"/>
      <point x="33" y="407"/>
      <point x="33" y="354" type="curve" smooth="yes"/>
      <point x="33" y="319"/>
      <point x="55" y="293"/>
      <point x="104" y="293" type="curve" smooth="yes"/>
    </contour>
    <contour>
      <point x="138" y="348"/>
      <point x="131" y="360"/>
      <point x="131" y="372" type="curve" smooth="yes"/>
      <point x="131" y="395"/>
      <point x="155" y="409"/>
      <point x="198" y="413" type="curve"/>
      <point x="197" y="394"/>
      <point x="194" y="382"/>
      <point x="194" y="365" type="curve" smooth="yes"/>
      <point x="194" y="358" type="line"/>
      <point x="179" y="350"/>
      <point x="161" y="343"/>
      <point x="146" y="342" type="curve"/>
    </contour>
  </outline>
</glyph>
<glyph name="guillemotleft" format="1">
  <advance width="495"/>
  <unicode hex="00AB"/>
  <outline>
    <contour>
      <point x="421" y="54"/>
      <point x="442" y="78"/>
      <point x="463" y="112" type="curve"/>
      <point x="353" y="222" type="line"/>
      <point x="463" y="334" type="line"/>
      <point x="442" y="368"/>
      <point x="421" y="391"/>
      <point x="381" y="422" type="curve"/>
      <point x="337" y="358"/>
      <point x="294" y="307"/>
      <point x="238" y="243" type="curve"/>
      <point x="238" y="203" type="line"/>
      <point x="294" y="139"/>
      <point x="337" y="88"/>
      <point x="381" y="24" type="curve"/>
    </contour>
    <contour>
      <point x="205" y="54"/>
      <point x="226" y="78"/>
      <point x="247" y="112" type="curve"/>
      <point x="137" y="222" type="line"/>
      <point x="247" y="334" type="line"/>
      <point x="226" y="368"/>
      <point x="205" y="391"/>
      <point x="165" y="422" type="curve"/>
      <point x="121" y="358"/>
      <point x="78" y="307"/>
      <point x="22" y="243" type="curve"/>
      <point x="22" y="203" type="line"/>
      <point x="78" y="139"/>
      <point x="121" y="88"/>
      <point x="165" y="24" type="curve"/>
    </contour>
  </outline>
</glyph>
<glyph name="logicalnot" format="1">
  <advance width="533"/>
  <unicode hex="00AC"/>
  <outline>
    <contour>
      <point x="443" y="57"/>
      <point x="460" y="59"/>
      <point x="475" y="62" type="curve"/>
      <point x="471" y="143"/>
      <point x="470" y="212"/>
      <point x="470" y="313" type="curve"/>
      <point x="402" y="310"/>
      <point x="333" y="309"/>
      <point x="267" y="309" type="curve" smooth="yes"/>
      <point x="198" y="309"/>
      <point x="131" y="310"/>
      <point x="62" y="313" type="curve"/>
      <point x="59" y="297"/>
      <point x="57" y="280"/>
      <point x="57" y="265" type="curve" smooth="yes"/>
      <point x="57" y="250"/>
      <point x="59" y="233"/>
      <point x="62" y="218" type="curve"/>
      <point x="131" y="221"/>
      <point x="198" y="223"/>
      <point x="267" y="223" type="curve" smooth="yes"/>
      <point x="306" y="223"/>
      <point x="346" y="222"/>
      <point x="384" y="221" type="curve"/>
      <point x="384" y="168"/>
      <point x="381" y="105"/>
      <point x="379" y="62" type="curve"/>
      <point x="396" y="59"/>
      <point x="413" y="57"/>
      <point x="428" y="57" type="curve" smooth="yes"/>
    </contour>
  </outline>
</glyph>
<glyph name="AE" format="1">
  <advance width="706"/>
  <unicode hex="00C6"/>
  <outline>
    <contour>
      <point x="66" y="-4"/>
      <point x="80" y="-2"/>
      <point x="97" y="2" type="curve"/>
      <point x="106" y="30"/>
      <point x="121" y="73"/>
      <point x="139" y="122" type="curve"/>
      <point x="160" y="125"/>
      <point x="193" y="126"/>
      <point x="233" y="126" type="curve" smooth="yes"/>
      <point x="271" y="126"/>
      <point x="313" y="125"/>
      <point x="349" y="123" type="curve"/>
      <point x="367" y="74"/>
      <point x="382" y="30"/>
      <point x="391" y="2" type="curve"/>
      <point x="423" y="4"/>
      <point x="475" y="5"/>
      <point x="528" y="5" type="curve" smooth="yes"/>
      <point x="583" y="5"/>
      <point x="640" y="3"/>
      <point x="677" y="-3" type="curve"/>
      <point x="690" y="18"/>
      <point x="698" y="85"/>
      <point x="698" y="128" type="curve"/>
      <point x="647" y="110"/>
      <point x="589" y="102"/>
      <point x="496" y="102" type="curve"/>
      <point x="481" y="138"/>
      <point x="464" y="180"/>
      <point x="447" y="225" type="curve"/>
      <point x="505" y="225"/>
      <point x="551" y="223"/>
      <point x="614" y="218" type="curve"/>
      <point x="616" y="234"/>
      <point x="618" y="252"/>
      <point x="618" y="266" type="curve" smooth="yes"/>
      <point x="618" y="282"/>
      <point x="616" y="298"/>
      <point x="614" y="313" type="curve"/>
      <point x="574" y="306"/>
      <point x="548" y="302"/>
      <point x="474" y="302" type="curve" smooth="yes"/>
      <point x="456" y="302"/>
      <point x="436" y="303"/>
      <point x="417" y="304" type="curve"/>
      <point x="376" y="417" type="line"/>
      <point x="402" y="420"/>
      <point x="435" y="423"/>
      <point x="464" y="423" type="curve" smooth="yes"/>
      <point x="517" y="423"/>
      <point x="577" y="414"/>
      <point x="614" y="396" type="curve"/>
      <point x="627" y="416"/>
      <point x="635" y="484"/>
      <point x="635" y="527" type="curve"/>
      <point x="580" y="522"/>
      <point x="498" y="520"/>
      <point x="419" y="520" type="curve" smooth="yes"/>
      <point x="337" y="520"/>
      <point x="256" y="522"/>
      <point x="208" y="527" type="curve"/>
      <point x="169" y="409"/>
      <point x="44" y="75"/>
      <point x="3" y="2" type="curve"/>
      <point x="20" y="-2"/>
      <point x="37" y="-4"/>
      <point x="53" y="-4" type="curve" smooth="yes"/>
    </contour>
    <contour>
      <point x="239" y="201"/>
      <point x="202" y="202"/>
      <point x="170" y="204" type="curve"/>
      <point x="196" y="273"/>
      <point x="223" y="345"/>
      <point x="245" y="398" type="curve"/>
      <point x="266" y="349"/>
      <point x="293" y="276"/>
      <point x="320" y="203" type="curve"/>
      <point x="305" y="202"/>
      <point x="288" y="201"/>
      <point x="272" y="201" type="curve" smooth="yes"/>
    </contour>
    <contour>
      <point x="359" y="527" type="move" name="top"/>
    </contour>
    <contour>
      <point x="359" y="0" type="move" name="bottom"/>
    </contour>
  </outline>
</glyph>
<glyph name="multiply" format="1">
  <advance width="533"/>
  <unicode hex="00D7"/>
  <outline>
    <contour>
      <point x="183" y="119"/>
      <point x="224" y="163"/>
      <point x="267" y="207" type="curve"/>
      <point x="309" y="163"/>
      <point x="351" y="119"/>
      <point x="392" y="73" type="curve"/>
      <point x="423" y="95"/>
      <point x="435" y="109"/>
      <point x="459" y="141" type="curve"/>
      <point x="413" y="182"/>
      <point x="370" y="223"/>
      <point x="326" y="266" type="curve"/>
      <point x="370" y="308"/>
      <point x="413" y="350"/>
      <point x="459" y="391" type="curve"/>
      <point x="436" y="423"/>
      <point x="424" y="434"/>
      <point x="392" y="458" type="curve"/>
      <point x="351" y="412"/>
      <point x="309" y="369"/>
      <point x="267" y="325" type="curve"/>
      <point x="224" y="369"/>
      <point x="183" y="412"/>
      <point x="142" y="458" type="curve"/>
      <point x="110" y="435"/>
      <point x="99" y="423"/>
      <point x="74" y="391" type="curve"/>
      <point x="120" y="350"/>
      <point x="164" y="308"/>
      <point x="208" y="266" type="curve"/>
      <point x="164" y="223"/>
      <point x="120" y="182"/>
      <point x="74" y="141" type="curve"/>
      <point x="96" y="109"/>
      <point x="110" y="97"/>
      <point x="142" y="73" type="curve"/>
    </contour>
  </outline>
</glyph>
<glyph name="ae" format="1">
  <advance width="694"/>
  <unicode hex="00E6"/>
  <outline>
    <contour>
      <point x="175" y="-11"/>
      <point x="239" y="16"/>
      <point x="290" y="56" type="curve"/>
      <point x="322" y="12"/>
      <point x="374" y="-11"/>
      <point x="444" y="-11" type="curve" smooth="yes"/>
      <point x="522" y="-11"/>
      <point x="603" y="25"/>
      <point x="646" y="78" type="curve"/>
      <point x="631" y="137" type="line"/>
      <point x="594" y="112"/>
      <point x="542" y="98"/>
      <point x="485" y="98" type="curve" smooth="yes"/>
      <point x="429" y="98"/>
      <point x="397" y="119"/>
      <point x="386" y="168" type="curve"/>
      <point x="483" y="170"/>
      <point x="590" y="184"/>
      <point x="661" y="201" type="curve"/>
      <point x="661" y="344"/>
      <point x="600" y="418"/>
      <point x="484" y="418" type="curve" smooth="yes"/>
      <point x="431" y="418"/>
      <point x="384" y="404"/>
      <point x="348" y="379" type="curve"/>
      <point x="321" y="404"/>
      <point x="282" y="418"/>
      <point x="229" y="418" type="curve" smooth="yes"/>
      <point x="158" y="418"/>
      <point x="83" y="378"/>
      <point x="42" y="319" type="curve"/>
      <point x="50" y="260" type="line"/>
      <point x="84" y="283"/>
      <point x="134" y="297"/>
      <point x="179" y="297" type="curve" smooth="yes"/>
      <point x="237" y="297"/>
      <point x="254" y="272"/>
      <point x="254" y="222" type="curve"/>
      <point x="99" y="209"/>
      <point x="23" y="164"/>
      <point x="23" y="83" type="curve" smooth="yes"/>
      <point x="23" y="28"/>
      <point x="67" y="-11"/>
      <point x="127" y="-11" type="curve" smooth="yes"/>
    </contour>
    <contour>
      <point x="165" y="67"/>
      <point x="155" y="88"/>
      <point x="155" y="106" type="curve" smooth="yes"/>
      <point x="155" y="142"/>
      <point x="190" y="165"/>
      <point x="254" y="172" type="curve"/>
      <point x="255" y="144"/>
      <point x="260" y="118"/>
      <point x="269" y="96" type="curve"/>
      <point x="243" y="76"/>
      <point x="207" y="60"/>
      <point x="179" y="57" type="curve"/>
    </contour>
    <contour>
      <point x="381" y="277"/>
      <point x="400" y="328"/>
      <point x="437" y="352" type="curve"/>
      <point x="486" y="352"/>
      <point x="521" y="309"/>
      <point x="523" y="254" type="curve"/>
      <point x="489" y="238"/>
      <point x="433" y="225"/>
      <point x="381" y="219" type="curve"/>
    </contour>
    <contour>
      <point x="347" y="407" type="move" name="top"/>
    </contour>
    <contour>
      <point x="347" y="0" type="move" name="bottom"/>
    </contour>
  </outline>
</glyph>
<glyph name="dotlessi" format="1">
  <advance width="247"/>
  <unicode hex="0131"/>
  <outline>
    <contour>
      <point x="158" y="-9"/>
      <point x="195" y="0"/>
      <point x="224" y="27" type="curve"/>
      <point x="193" y="61"/>
      <point x="185" y="84"/>
      <point x="185" y="192" type="curve" smooth="yes"/>
      <point x="185" y="294"/>
      <point x="190" y="379"/>
      <point x="197" y="417" type="curve"/>
      <point x="145" y="417"/>
      <point x="100" y="413"/>
      <point x="47" y="397" type="curve"/>
      <point x="60" y="376"/>
      <point x="66" y="322"/>
      <point x="66" y="272" type="curve" smooth="yes"/>
      <point x="66" y="208"/>
      <point x="62" y="144"/>
      <point x="62" y="73" type="curve" smooth="yes"/>
      <point x="62" y="10"/>
      <point x="83" y="-9"/>
      <point x="136" y="-9" type="curve" smooth="yes"/>
    </contour>
    <contour>
      <point x="180" y="0" type="move" name="ogonek"/>
    </contour>
    <contour>
      <point x="132" y="0" type="move" name="bottom"/>
    </contour>
    <contour>
      <point x="127" y="407" type="move" name="top"/>
    </contour>
  </outline>
</glyph>
<glyph name="acutecomb" format="1">
  <advance width="229"/>
  <unicode hex="0301"/>
  <outline>
    <contour>
      <point x="92" y="471"/>
      <point x="185" y="513"/>
      <point x="229" y="568" type="curve"/>
      <point x="207" y="605"/>
      <point x="162" y="625"/>
      <point x="103" y="625" type="curve"/>
      <point x="98" y="576"/>
      <point x="53" y="517"/>
      <point x="0" y="494" type="curve"/>
      <point x="11" y="460" type="line"/>
    </contour>
    <contour>
      <point x="114" y="608" type="move" name="top"/>
    </contour>
    <contour>
      <point x="103" y="407" type="move" name="_top"/>
    </contour>
  </outline>
</glyph>
<glyph name="uni0302" format="1">
  <advance width="294"/>
  <unicode hex="0302"/>
  <outline>
    <contour>
      <point x="127" y="550" type="line"/>
      <point x="178" y="477" type="line"/>
      <point x="223" y="477"/>
      <point x="262" y="481"/>
      <point x="294" y="491" type="curve"/>
      <point x="275" y="510"/>
      <point x="229" y="574"/>
      <point x="205" y="616" type="curve"/>
      <point x="160" y="616"/>
      <point x="121" y="613"/>
      <point x="89" y="603" type="curve"/>
      <point x="65" y="568"/>
      <point x="29" y="518"/>
      <point x="0" y="485" type="curve"/>
      <point x="34" y="479"/>
      <point x="53" y="477"/>
      <point x="80" y="477" type="curve"/>
    </contour>
    <contour>
      <point x="147" y="616" type="move" name="top"/>
    </contour>
    <contour>
      <point x="147" y="407" type="move" name="_top"/>
    </contour>
  </outline>
</glyph>
<glyph name="uni0304" format="1">
  <advance width="293"/>
  <unicode hex="0304"/>
  <outline>
    <contour>
      <point x="37" y="499"/>
      <point x="94" y="506"/>
      <point x="144" y="506" type="curve" smooth="yes"/>
      <point x="186" y="506"/>
      <point x="227" y="505"/>
      <point x="274" y="502" type="curve"/>
      <point x="281" y="540"/>
      <point x="284" y="571"/>
      <point x="280" y="609" type="curve"/>
      <point x="257" y="601"/>
      <point x="200" y="594"/>
      <point x="150" y="594" type="curve" smooth="yes"/>
      <point x="108" y="594"/>
      <point x="67" y="595"/>
      <point x="20" y="598" type="curve"/>
      <point x="13" y="561"/>
      <point x="10" y="529"/>
      <point x="14" y="492" type="curve"/>
    </contour>
    <contour>
      <point x="146" y="613" type="move" name="top"/>
    </contour>
    <contour>
      <point x="146" y="407" type="move" name="_top"/>
    </contour>
  </outline>
</glyph>
<glyph name="uni0306" format="1">
  <advance width="296"/>
  <unicode hex="0306"/>
  <outline>
    <contour>
      <point x="222" y="480"/>
      <point x="276" y="529"/>
      <point x="276" y="604" type="curve"/>
      <point x="260" y="613"/>
      <point x="239" y="617"/>
      <point x="215" y="617" type="curve"/>
      <point x="215" y="569"/>
      <point x="197" y="542"/>
      <point x="169" y="542" type="curve" smooth="yes"/>
      <point x="141" y="542"/>
      <point x="124" y="569"/>
      <point x="124" y="617" type="curve"/>
      <point x="80" y="617"/>
      <point x="49" y="612"/>
      <point x="20" y="599" type="curve"/>
      <point x="20" y="527"/>
      <point x="73" y="480"/>
      <point x="146" y="480" type="curve" smooth="yes"/>
    </contour>
    <contour>
      <point x="148" y="612" type="move" name="top"/>
    </contour>
    <contour>
      <point x="148" y="407" type="move" name="_top"/>
    </contour>
  </outline>
</glyph>
<glyph name="uni0307" format="1">
  <advance width="226"/>
  <unicode hex="0307"/>
  <outline>
    <contour>
      <point x="143" y="485"/>
      <point x="169" y="512"/>
      <point x="194" y="542" type="curve"/>
      <point x="165" y="567"/>
      <point x="138" y="594"/>
      <point x="113" y="624" type="curve"/>
      <point x="83" y="599"/>
      <point x="56" y="572"/>
      <point x="31" y="542" type="curve"/>
      <point x="61" y="517"/>
      <point x="88" y="490"/>
      <point x="113" y="460" type="curve"/>
    </contour>
    <contour>
      <point x="113" y="607" type="move" name="top"/>
    </contour>
    <contour>
      <point x="113" y="407" type="move" name="_top"/>
    </contour>
  </outline>
</glyph>
<glyph name="uni0308" format="1">
  <advance width="403"/>
  <unicode hex="0308"/>
  <outline>
    <contour>
      <point x="291" y="488"/>
      <point x="317" y="514"/>
      <point x="340" y="542" type="curve"/>
      <point x="312" y="565"/>
      <point x="286" y="591"/>
      <point x="263" y="619" type="curve"/>
      <point x="235" y="596"/>
      <point x="209" y="570"/>
      <point x="186" y="542" type="curve"/>
      <point x="214" y="519"/>
      <point x="240" y="493"/>
      <point x="263" y="465" type="curve"/>
    </contour>
    <contour>
      <point x="168" y="488"/>
      <point x="194" y="514"/>
      <point x="217" y="542" type="curve"/>
      <point x="189" y="565"/>
      <point x="163" y="591"/>
      <point x="140" y="619" type="curve"/>
      <point x="112" y="596"/>
      <point x="86" y="570"/>
      <point x="63" y="542" type="curve"/>
      <point x="91" y="519"/>
      <point x="117" y="493"/>
      <point x="140" y="465" type="curve"/>
    </contour>
    <contour>
      <point x="202" y="607" type="move" name="top"/>
    </contour>
    <contour>
      <point x="202" y="407" type="move" name="_top"/>
    </contour>
  </outline>
</glyph>
<glyph name="uni030B" format="1">
  <advance width="405"/>
  <unicode hex="030B"/>
  <outline>
    <contour>
      <point x="282" y="471"/>
      <point x="362" y="513"/>
      <point x="406" y="568" type="curve"/>
      <point x="384" y="605"/>
      <point x="339" y="625"/>
      <point x="280" y="625" type="curve"/>
      <point x="275" y="576"/>
      <point x="239" y="517"/>
      <point x="197" y="494" type="curve"/>
      <point x="208" y="460" type="line"/>
    </contour>
    <contour>
      <point x="85" y="471"/>
      <point x="165" y="513"/>
      <point x="209" y="568" type="curve"/>
      <point x="187" y="605"/>
      <point x="142" y="625"/>
      <point x="83" y="625" type="curve"/>
      <point x="78" y="576"/>
      <point x="43" y="517"/>
      <point x="0" y="494" type="curve"/>
      <point x="11" y="460" type="line"/>
    </contour>
    <contour>
      <point x="203" y="625" type="move" name="top"/>
    </contour>
    <contour>
      <point x="173" y="407" type="move" name="_top"/>
    </contour>
  </outline>
</glyph>
<glyph name="uni0326" format="1">
  <advance width="174"/>
  <unicode hex="0326"/>
  <outline>
    <contour>
      <point x="129" y="-212"/>
      <point x="156" y="-150"/>
      <point x="156" y="-64" type="curve"/>
      <point x="122" y="-40" type="line"/>
      <point x="84" y="-46"/>
      <point x="44" y="-63"/>
      <point x="17" y="-88" type="curve"/>
      <point x="37" y="-108"/>
      <point x="53" y="-146"/>
      <point x="53" y="-170" type="curve" smooth="yes"/>
      <point x="53" y="-196"/>
      <point x="47" y="-222"/>
      <point x="34" y="-242" type="curve"/>
      <point x="69" y="-269" type="line"/>
    </contour>
    <contour>
      <point x="87" y="0" type="move" name="_bottom"/>
    </contour>
    <contour>
      <point x="87" y="-272" type="move" name="bottom"/>
    </contour>
  </outline>
</glyph>
<glyph name="uni0327" format="1">
  <advance width="209"/>
  <unicode hex="0327"/>
  <outline>
    <contour>
      <point x="173" y="-219"/>
      <point x="209" y="-190"/>
      <point x="209" y="-140" type="curve" smooth="yes"/>
      <point x="209" y="-91"/>
      <point x="171" y="-54"/>
      <point x="111" y="-41" type="curve"/>
      <point x="120" y="14" type="line"/>
      <point x="70" y="14" type="line"/>
      <point x="54" y="-50" type="line"/>
      <point x="100" y="-60"/>
      <point x="125" y="-82"/>
      <point x="125" y="-112" type="curve" smooth="yes"/>
      <point x="125" y="-139"/>
      <point x="105" y="-155"/>
      <point x="73" y="-155" type="curve" smooth="yes"/>
      <point x="52" y="-155"/>
      <point x="29" y="-147"/>
      <point x="12" y="-136" type="curve"/>
      <point x="0" y="-171" type="line"/>
      <point x="24" y="-199"/>
      <point x="68" y="-219"/>
      <point x="112" y="-219" type="curve" smooth="yes"/>
    </contour>
    <contour>
      <point x="93" y="0" type="move" name="_bottom"/>
    </contour>
  </outline>
</glyph>
<glyph name="uni0328" format="1">
  <advance width="219"/>
  <unicode hex="0328"/>
  <outline>
    <contour>
      <point x="147" y="-211"/>
      <point x="194" y="-187"/>
      <point x="219" y="-153" type="curve"/>
      <point x="207" y="-117" type="line"/>
      <point x="189" y="-133"/>
      <point x="165" y="-143"/>
      <point x="143" y="-143" type="curve" smooth="yes"/>
      <point x="108" y="-143"/>
      <point x="87" y="-120"/>
      <point x="87" y="-82" type="curve" smooth="yes"/>
      <point x="87" y="-43"/>
      <point x="113" y="-14"/>
      <point x="160" y="0" type="curve"/>
      <point x="65" y="0"/>
      <point x="2" y="-47"/>
      <point x="1" y="-118" type="curve" smooth="yes"/>
      <point x="1" y="-177"/>
      <point x="39" y="-211"/>
      <point x="102" y="-211" type="curve" smooth="yes"/>
    </contour>
    <contour>
      <point x="159" y="0" type="move" name="_ogonek"/>
    </contour>
  </outline>
</glyph>
<glyph name="uni0336" format="1">
  <advance width="629"/>
  <unicode hex="0336"/>
  <outline>
    <contour>
      <point x="125" y="185"/>
      <point x="168" y="189"/>
      <point x="304" y="189" type="curve" smooth="yes"/>
      <point x="398" y="189"/>
      <point x="516" y="186"/>
      <point x="579" y="182" type="curve"/>
      <point x="583" y="197"/>
      <point x="587" y="213"/>
      <point x="587" y="226" type="curve" smooth="yes"/>
      <point x="587" y="241"/>
      <point x="583" y="255"/>
      <point x="579" y="269" type="curve"/>
      <point x="509" y="263"/>
      <point x="460" y="260"/>
      <point x="326" y="260" type="curve" smooth="yes"/>
      <point x="230" y="260"/>
      <point x="115" y="262"/>
      <point x="50" y="267" type="curve"/>
      <point x="44" y="252"/>
      <point x="41" y="236"/>
      <point x="41" y="223" type="curve" smooth="yes"/>
      <point x="41" y="209"/>
      <point x="44" y="194"/>
      <point x="50" y="180" type="curve"/>
    </contour>
    <contour>
      <point x="315" y="224" type="move" name="_center"/>
    </contour>
  </outline>
</glyph>
<glyph name="uni0338" format="1">
  <advance width="326"/>
  <unicode hex="0338"/>
  <outline>
    <contour>
      <point x="40" y="-100"/>
      <point x="61" y="-96"/>
      <point x="79" y="-91" type="curve"/>
      <point x="101" y="4"/>
      <point x="281" y="430"/>
      <point x="353" y="592" type="curve"/>
      <point x="336" y="597"/>
      <point x="320" y="601"/>
      <point x="306" y="601" type="curve" smooth="yes"/>
      <point x="287" y="601"/>
      <point x="266" y="597"/>
      <point x="248" y="592" type="curve"/>
      <point x="226" y="498"/>
      <point x="46" y="71"/>
      <point x="-26" y="-91" type="curve"/>
      <point x="-9" y="-96"/>
      <point x="6" y="-100"/>
      <point x="21" y="-100" type="curve" smooth="yes"/>
    </contour>
    <contour>
      <point x="163" y="251" type="move" name="_center"/>
    </contour>
  </outline>
</glyph>
<glyph name="uni03A9" format="1">
  <advance width="580"/>
  <unicode hex="03A9"/>
  <outline>
    <contour>
      <point x="99" y="-1"/>
      <point x="145" y="1"/>
      <point x="196" y="1" type="curve" smooth="yes"/>
      <point x="237" y="1" type="line"/>
      <point x="237" y="126" type="line"/>
      <point x="190" y="153"/>
      <point x="162" y="206"/>
      <point x="162" y="274" type="curve" smooth="yes"/>
      <point x="162" y="361"/>
      <point x="221" y="424"/>
      <point x="303" y="424" type="curve"/>
      <point x="373" y="408"/>
      <point x="418" y="347"/>
      <point x="418" y="272" type="curve" smooth="yes"/>
      <point x="418" y="204"/>
      <point x="391" y="153"/>
      <point x="344" y="127" type="curve"/>
      <point x="344" y="1" type="line"/>
      <point x="385" y="1" type="line" smooth="yes"/>
      <point x="436" y="1"/>
      <point x="482" y="-1"/>
      <point x="537" y="-3" type="curve"/>
      <point x="540" y="10"/>
      <point x="541" y="23"/>
      <point x="541" y="36" type="curve" smooth="yes"/>
      <point x="541" y="50"/>
      <point x="540" y="68"/>
      <point x="537" y="84" type="curve"/>
      <point x="493" y="73"/>
      <point x="454" y="64"/>
      <point x="414" y="61" type="curve"/>
      <point x="414" y="103" type="line"/>
      <point x="499" y="143"/>
      <point x="552" y="221"/>
      <point x="552" y="318" type="curve" smooth="yes"/>
      <point x="552" y="447"/>
      <point x="453" y="533"/>
      <point x="307" y="533" type="curve" smooth="yes"/>
      <point x="143" y="533"/>
      <point x="29" y="434"/>
      <point x="29" y="293" type="curve" smooth="yes"/>
      <point x="29" y="198"/>
      <point x="81" y="126"/>
      <point x="167" y="95" type="curve"/>
      <point x="167" y="61" type="line"/>
      <point x="127" y="64"/>
      <point x="88" y="73"/>
      <point x="44" y="84" type="curve"/>
      <point x="41" y="68"/>
      <point x="40" y="50"/>
      <point x="40" y="36" type="curve" smooth="yes"/>
      <point x="40" y="23"/>
      <point x="41" y="10"/>
      <point x="44" y="-3" type="curve"/>
    </contour>
  </outline>
</glyph>
<glyph name="uni03BC" format="1">
  <advance width="494"/>
  <unicode hex="03BC"/>
  <outline>
    <contour>
      <point x="156" y="-178"/>
      <point x="191" y="-164"/>
      <point x="216" y="-142" type="curve"/>
      <point x="186" y="-104"/>
      <point x="179" y="-77"/>
      <point x="177" y="10" type="curve"/>
      <point x="195" y="2"/>
      <point x="208" y="0"/>
      <point x="229" y="0" type="curve" smooth="yes"/>
      <point x="263" y="0"/>
      <point x="300" y="17"/>
      <point x="316" y="37" type="curve"/>
      <point x="324" y="14"/>
      <point x="348" y="0"/>
      <point x="381" y="0" type="curve" smooth="yes"/>
      <point x="410" y="0"/>
      <point x="441" y="12"/>
      <point x="470" y="35" type="curve"/>
      <point x="441" y="58"/>
      <point x="431" y="82"/>
      <point x="431" y="132" type="curve" smooth="yes"/>
      <point x="431" y="171"/>
      <point x="437" y="320"/>
      <point x="443" y="417" type="curve"/>
      <point x="391" y="417"/>
      <point x="359" y="412"/>
      <point x="308" y="397" type="curve"/>
      <point x="308" y="122" type="line"/>
      <point x="288" y="108"/>
      <point x="263" y="100"/>
      <point x="233" y="100" type="curve" smooth="yes"/>
      <point x="194" y="100"/>
      <point x="177" y="118"/>
      <point x="177" y="160" type="curve" smooth="yes"/>
      <point x="177" y="417" type="line"/>
      <point x="123" y="417"/>
      <point x="81" y="411"/>
      <point x="39" y="397" type="curve"/>
      <point x="52" y="369"/>
      <point x="58" y="324"/>
      <point x="58" y="257" type="curve" smooth="yes"/>
      <point x="58" y="106"/>
      <point x="53" y="-12"/>
      <point x="53" y="-95" type="curve" smooth="yes"/>
      <point x="53" y="-150"/>
      <point x="77" y="-178"/>
      <point x="127" y="-178" type="curve" smooth="yes"/>
    </contour>
  </outline>
</glyph>
<glyph name="bullet" format="1">
  <advance width="361"/>
  <unicode hex="2022"/>
  <outline>
    <contour>
      <point x="238" y="174"/>
      <point x="286" y="222"/>
      <point x="333" y="279" type="curve"/>
      <point x="276" y="327"/>
      <point x="228" y="375"/>
      <point x="181" y="433" type="curve"/>
      <point x="122" y="385"/>
      <point x="75" y="337"/>
      <point x="27" y="279" type="curve"/>
      <point x="85" y="232"/>
      <point x="133" y="184"/>
      <point x="181" y="127" type="curve"/>
    </contour>
  </outline>
</glyph>
<glyph name="uni2113" format="1">
  <advance width="287"/>
  <unicode hex="2113"/>
  <outline>
    <contour>
      <point x="220" y="-9"/>
      <point x="269" y="53"/>
      <point x="269" y="139" type="curve"/>
      <point x="241" y="139" type="line"/>
      <point x="241" y="101"/>
      <point x="223" y="66"/>
      <point x="204" y="58" type="curve"/>
      <point x="195" y="83"/>
      <point x="193" y="114"/>
      <point x="193" y="192" type="curve" smooth="yes"/>
      <point x="193" y="247" type="line"/>
      <point x="242" y="298"/>
      <point x="264" y="365"/>
      <point x="264" y="420" type="curve" smooth="yes"/>
      <point x="264" y="492"/>
      <point x="231" y="547"/>
      <point x="178" y="547" type="curve" smooth="yes"/>
      <point x="136" y="547"/>
      <point x="105" y="535"/>
      <point x="74" y="512" type="curve"/>
      <point x="74" y="317" type="line" smooth="yes"/>
      <point x="74" y="235"/>
      <point x="70" y="163"/>
      <point x="70" y="91" type="curve" smooth="yes"/>
      <point x="70" y="15"/>
      <point x="91" y="-9"/>
      <point x="144" y="-9" type="curve" smooth="yes"/>
    </contour>
    <contour>
      <point x="193" y="490" type="line"/>
      <point x="214" y="490"/>
      <point x="236" y="460"/>
      <point x="236" y="420" type="curve" smooth="yes"/>
      <point x="236" y="371"/>
      <point x="220" y="324"/>
      <point x="193" y="285" type="curve"/>
    </contour>
  </outline>
</glyph>
<glyph name="trademark" format="1">
  <advance width="688"/>
  <unicode hex="2122"/>
  <outline>
    <contour>
      <point x="331" y="323"/>
      <point x="340" y="324"/>
      <point x="349" y="326" type="curve"/>
      <point x="345" y="341"/>
      <point x="343" y="380"/>
      <point x="343" y="440" type="curve" smooth="yes"/>
      <point x="343" y="460"/>
      <point x="343" y="481"/>
      <point x="344" y="502" type="curve"/>
      <point x="376" y="440"/>
      <point x="414" y="363"/>
      <point x="430" y="326" type="curve"/>
      <point x="435" y="325"/>
      <point x="439" y="324"/>
      <point x="444" y="324" type="curve" smooth="yes"/>
      <point x="449" y="324"/>
      <point x="454" y="325"/>
      <point x="459" y="326" type="curve"/>
      <point x="478" y="366"/>
      <point x="520" y="454"/>
      <point x="555" y="519" type="curve"/>
      <point x="555" y="505"/>
      <point x="556" y="491"/>
      <point x="556" y="476" type="curve" smooth="yes"/>
      <point x="556" y="424"/>
      <point x="553" y="359"/>
      <point x="550" y="326" type="curve"/>
      <point x="563" y="324"/>
      <point x="576" y="323"/>
      <point x="588" y="323" type="curve" smooth="yes"/>
      <point x="600" y="323"/>
      <point x="614" y="324"/>
      <point x="627" y="326" type="curve"/>
      <point x="621" y="341"/>
      <point x="618" y="380"/>
      <point x="618" y="440" type="curve" smooth="yes"/>
      <point x="618" y="492"/>
      <point x="621" y="557"/>
      <point x="624" y="590" type="curve"/>
      <point x="609" y="592"/>
      <point x="595" y="593"/>
      <point x="583" y="593" type="curve" smooth="yes"/>
      <point x="570" y="593"/>
      <point x="556" y="592"/>
      <point x="547" y="590" type="curve"/>
      <point x="529" y="553"/>
      <point x="488" y="469"/>
      <point x="458" y="411" type="curve"/>
      <point x="429" y="466"/>
      <point x="387" y="553"/>
      <point x="371" y="590" type="curve"/>
      <point x="357" y="592"/>
      <point x="343" y="593"/>
      <point x="331" y="593" type="curve" smooth="yes"/>
      <point x="319" y="593"/>
      <point x="308" y="592"/>
      <point x="296" y="590" type="curve"/>
      <point x="301" y="559"/>
      <point x="302" y="523"/>
      <point x="302" y="473" type="curve" smooth="yes"/>
      <point x="302" y="422"/>
      <point x="301" y="358"/>
      <point x="298" y="326" type="curve"/>
      <point x="307" y="324"/>
      <point x="316" y="323"/>
      <point x="323" y="323" type="curve" smooth="yes"/>
    </contour>
    <contour>
      <point x="162" y="323"/>
      <point x="177" y="324"/>
      <point x="186" y="326" type="curve"/>
      <point x="180" y="341"/>
      <point x="177" y="377"/>
      <point x="177" y="440" type="curve" smooth="yes"/>
      <point x="177" y="470"/>
      <point x="178" y="507"/>
      <point x="180" y="537" type="curve"/>
      <point x="211" y="536"/>
      <point x="243" y="535"/>
      <point x="262" y="533" type="curve"/>
      <point x="264" y="542"/>
      <point x="265" y="554"/>
      <point x="265" y="563" type="curve" smooth="yes"/>
      <point x="265" y="572"/>
      <point x="264" y="581"/>
      <point x="262" y="591" type="curve"/>
      <point x="249" y="587"/>
      <point x="216" y="585"/>
      <point x="161" y="585" type="curve" smooth="yes"/>
      <point x="116" y="585"/>
      <point x="60" y="587"/>
      <point x="30" y="589" type="curve"/>
      <point x="28" y="580"/>
      <point x="27" y="572"/>
      <point x="27" y="563" type="curve" smooth="yes"/>
      <point x="27" y="554"/>
      <point x="28" y="543"/>
      <point x="30" y="531" type="curve"/>
      <point x="41" y="535"/>
      <point x="68" y="537"/>
      <point x="113" y="538" type="curve"/>
      <point x="114" y="522"/>
      <point x="115" y="501"/>
      <point x="115" y="476" type="curve" smooth="yes"/>
      <point x="115" y="427"/>
      <point x="112" y="361"/>
      <point x="109" y="326" type="curve"/>
      <point x="124" y="324"/>
      <point x="137" y="323"/>
      <point x="148" y="323" type="curve" smooth="yes"/>
    </contour>
  </outline>
</glyph>
<glyph name="estimated" format="1">
  <advance width="600"/>
  <unicode hex="212E"/>
  <outline>
    <contour>
      <point x="409" y="-17"/>
      <point x="461" y="26"/>
      <point x="530" y="118" type="curve"/>
      <point x="495" y="139" type="line"/>
      <point x="449" y="59"/>
      <point x="385" y="19"/>
      <point x="302" y="19" type="curve" smooth="yes"/>
      <point x="247" y="19"/>
      <point x="198" y="39"/>
      <point x="157" y="78" type="curve"/>
      <point x="157" y="259" type="line"/>
      <point x="561" y="259" type="line"/>
      <point x="554" y="413"/>
      <point x="473" y="535"/>
      <point x="302" y="535" type="curve" smooth="yes"/>
      <point x="142" y="535"/>
      <point x="44" y="422"/>
      <point x="44" y="259" type="curve" smooth="yes"/>
      <point x="44" y="107"/>
      <point x="138" y="-17"/>
      <point x="302" y="-17" type="curve" smooth="yes"/>
    </contour>
    <contour>
      <point x="157" y="440" type="line"/>
      <point x="196" y="480"/>
      <point x="244" y="500"/>
      <point x="301" y="500" type="curve" smooth="yes"/>
      <point x="357" y="500"/>
      <point x="406" y="480"/>
      <point x="448" y="440" type="curve"/>
      <point x="448" y="295" type="line"/>
      <point x="157" y="295" type="line"/>
    </contour>
  </outline>
</glyph>
<glyph name="emptyset" format="1">
  <advance width="595"/>
  <unicode hex="2205"/>
  <outline>
    <contour>
      <point x="449" y="-11"/>
      <point x="569" y="109"/>
      <point x="569" y="279" type="curve" smooth="yes"/>
      <point x="569" y="432"/>
      <point x="470" y="534"/>
      <point x="326" y="534" type="curve" smooth="yes"/>
      <point x="150" y="534"/>
      <point x="27" y="417"/>
      <point x="27" y="251" type="curve" smooth="yes"/>
      <point x="27" y="95"/>
      <point x="128" y="-11"/>
      <point x="278" y="-11" type="curve" smooth="yes"/>
    </contour>
    <contour>
      <point x="193" y="103"/>
      <point x="130" y="164"/>
      <point x="130" y="255" type="curve" smooth="yes"/>
      <point x="130" y="351"/>
      <point x="206" y="419"/>
      <point x="315" y="419" type="curve" smooth="yes"/>
      <point x="404" y="419"/>
      <point x="465" y="360"/>
      <point x="465" y="271" type="curve" smooth="yes"/>
      <point x="465" y="172"/>
      <point x="391" y="103"/>
      <point x="285" y="103" type="curve" smooth="yes"/>
    </contour>
    <component base="fraction" xOffset="258" yOffset="11"/>
  </outline>
</glyph>
<glyph name="summation" format="1">
  <advance width="533"/>
  <unicode hex="2211"/>
  <outline>
    <contour>
      <point x="462" y="37"/>
      <point x="474" y="88"/>
      <point x="472" y="134" type="curve"/>
      <point x="421" y="123"/>
      <point x="341" y="115"/>
      <point x="274" y="115" type="curve" smooth="yes"/>
      <point x="242" y="115"/>
      <point x="217" y="116"/>
      <point x="168" y="120" type="curve"/>
      <point x="405" y="287" type="line"/>
      <point x="352" y="326"/>
      <point x="306" y="370"/>
      <point x="258" y="427" type="curve"/>
      <point x="334" y="427"/>
      <point x="385" y="426"/>
      <point x="457" y="422" type="curve"/>
      <point x="480" y="463"/>
      <point x="492" y="514"/>
      <point x="490" y="561" type="curve"/>
      <point x="438" y="550"/>
      <point x="359" y="542"/>
      <point x="291" y="542" type="curve" smooth="yes"/>
      <point x="215" y="542"/>
      <point x="165" y="543"/>
      <point x="92" y="547" type="curve"/>
      <point x="71" y="505"/>
      <point x="58" y="454"/>
      <point x="61" y="408" type="curve"/>
      <point x="102" y="381"/>
      <point x="138" y="348"/>
      <point x="224" y="248" type="curve"/>
      <point x="149" y="196"/>
      <point x="74" y="133"/>
      <point x="52" y="98" type="curve"/>
      <point x="44" y="70"/>
      <point x="40" y="32"/>
      <point x="42" y="0" type="curve"/>
      <point x="241" y="0" type="line" smooth="yes"/>
      <point x="316" y="0"/>
      <point x="367" y="-1"/>
      <point x="440" y="-5" type="curve"/>
    </contour>
  </outline>
</glyph>
<glyph name="minus" format="1">
  <advance width="533"/>
  <unicode hex="2212"/>
  <outline>
    <contour>
      <point x="131" y="221"/>
      <point x="198" y="223"/>
      <point x="267" y="223" type="curve" smooth="yes"/>
      <point x="335" y="223"/>
      <point x="403" y="221"/>
      <point x="471" y="218" type="curve"/>
      <point x="473" y="234"/>
      <point x="475" y="252"/>
      <point x="475" y="266" type="curve" smooth="yes"/>
      <point x="475" y="282"/>
      <point x="473" y="298"/>
      <point x="471" y="313" type="curve"/>
      <point x="403" y="310"/>
      <point x="335" y="309"/>
      <point x="267" y="309" type="curve" smooth="yes"/>
      <point x="198" y="309"/>
      <point x="131" y="310"/>
      <point x="62" y="313" type="curve"/>
      <point x="59" y="297"/>
      <point x="57" y="280"/>
      <point x="57" y="265" type="curve" smooth="yes"/>
      <point x="57" y="250"/>
      <point x="59" y="233"/>
      <point x="62" y="218" type="curve"/>
    </contour>
  </outline>
</glyph>
<glyph name="radical" format="1">
  <advance width="479"/>
  <unicode hex="221A"/>
  <outline>
    <contour>
      <point x="311" y="27" type="line"/>
      <point x="360" y="200"/>
      <point x="453" y="495"/>
      <point x="505" y="647" type="curve"/>
      <point x="462" y="647"/>
      <point x="430" y="644"/>
      <point x="395" y="636" type="curve"/>
      <point x="410" y="594"/>
      <point x="369" y="435"/>
      <point x="258" y="106" type="curve"/>
      <point x="238" y="154"/>
      <point x="222" y="224"/>
      <point x="198" y="331" type="curve"/>
      <point x="134" y="331"/>
      <point x="84" y="324"/>
      <point x="33" y="310" type="curve"/>
      <point x="123" y="146"/>
      <point x="117" y="-9"/>
      <point x="204" y="-9" type="curve"/>
    </contour>
  </outline>
</glyph>
<glyph name="infinity" format="1">
  <advance width="616"/>
  <unicode hex="221E"/>
  <outline>
    <contour>
      <point x="218" y="47"/>
      <point x="262" y="80"/>
      <point x="293" y="136" type="curve"/>
      <point x="319" y="86"/>
      <point x="357" y="47"/>
      <point x="424" y="47" type="curve" smooth="yes"/>
      <point x="514" y="47"/>
      <point x="578" y="144"/>
      <point x="578" y="282" type="curve" smooth="yes"/>
      <point x="578" y="398"/>
      <point x="526" y="476"/>
      <point x="447" y="476" type="curve" smooth="yes"/>
      <point x="398" y="476"/>
      <point x="356" y="444"/>
      <point x="325" y="392" type="curve"/>
      <point x="297" y="439"/>
      <point x="258" y="476"/>
      <point x="190" y="476" type="curve" smooth="yes"/>
      <point x="100" y="476"/>
      <point x="37" y="379"/>
      <point x="37" y="240" type="curve" smooth="yes"/>
      <point x="37" y="125"/>
      <point x="89" y="47"/>
      <point x="168" y="47" type="curve" smooth="yes"/>
    </contour>
    <contour>
      <point x="142" y="176"/>
      <point x="117" y="200"/>
      <point x="106" y="241" type="curve"/>
      <point x="106" y="302"/>
      <point x="131" y="346"/>
      <point x="172" y="346" type="curve" smooth="yes"/>
      <point x="219" y="346"/>
      <point x="237" y="283"/>
      <point x="261" y="215" type="curve"/>
      <point x="240" y="190"/>
      <point x="213" y="176"/>
      <point x="181" y="176" type="curve" smooth="yes"/>
    </contour>
    <contour>
      <point x="402" y="176"/>
      <point x="386" y="243"/>
      <point x="361" y="314" type="curve"/>
      <point x="381" y="334"/>
      <point x="406" y="346"/>
      <point x="435" y="346" type="curve" smooth="yes"/>
      <point x="474" y="346"/>
      <point x="499" y="322"/>
      <point x="510" y="281" type="curve"/>
      <point x="510" y="220"/>
      <point x="485" y="176"/>
      <point x="444" y="176" type="curve" smooth="yes"/>
    </contour>
  </outline>
</glyph>
<glyph name="integral" format="1">
  <advance width="354"/>
  <unicode hex="222B"/>
  <outline>
    <contour>
      <point x="178" y="-197"/>
      <point x="242" y="-95"/>
      <point x="242" y="32" type="curve" smooth="yes"/>
      <point x="242" y="125"/>
      <point x="238" y="208"/>
      <point x="238" y="283" type="curve" smooth="yes"/>
      <point x="238" y="442"/>
      <point x="244" y="481"/>
      <point x="273" y="503" type="curve"/>
      <point x="302" y="498"/>
      <point x="332" y="484"/>
      <point x="387" y="450" type="curve"/>
      <point x="400" y="473"/>
      <point x="416" y="538"/>
      <point x="416" y="571" type="curve"/>
      <point x="383" y="580"/>
      <point x="345" y="585"/>
      <point x="303" y="585" type="curve" smooth="yes"/>
      <point x="175" y="585"/>
      <point x="110" y="482"/>
      <point x="110" y="356" type="curve" smooth="yes"/>
      <point x="110" y="263"/>
      <point x="115" y="180"/>
      <point x="115" y="105" type="curve" smooth="yes"/>
      <point x="115" y="-55"/>
      <point x="109" y="-93"/>
      <point x="80" y="-115" type="curve"/>
      <point x="50" y="-110"/>
      <point x="20" y="-96"/>
      <point x="-34" y="-62" type="curve"/>
      <point x="-48" y="-85"/>
      <point x="-63" y="-151"/>
      <point x="-63" y="-183" type="curve"/>
      <point x="-31" y="-192"/>
      <point x="7" y="-197"/>
      <point x="50" y="-197" type="curve" smooth="yes"/>
    </contour>
  </outline>
</glyph>
<glyph name="lozenge" format="1">
  <advance width="504"/>
  <unicode hex="25CA"/>
  <outline>
    <contour>
      <point x="277" y="-8"/>
      <point x="301" y="-5"/>
      <point x="324" y="0" type="curve"/>
      <point x="364" y="88"/>
      <point x="414" y="176"/>
      <point x="473" y="264" type="curve"/>
      <point x="414" y="352"/>
      <point x="364" y="439"/>
      <point x="324" y="527" type="curve"/>
      <point x="301" y="532"/>
      <point x="277" y="535"/>
      <point x="253" y="535" type="curve" smooth="yes"/>
      <point x="229" y="535"/>
      <point x="205" y="532"/>
      <point x="181" y="527" type="curve"/>
      <point x="141" y="439"/>
      <point x="91" y="352"/>
      <point x="32" y="264" type="curve"/>
      <point x="91" y="176"/>
      <point x="141" y="88"/>
      <point x="181" y="0" type="curve"/>
      <point x="205" y="-5"/>
      <point x="229" y="-8"/>
      <point x="253" y="-8" type="curve" smooth="yes"/>
    </contour>
    <contour>
      <point x="156" y="264" type="line"/>
      <point x="252" y="434" type="line"/>
      <point x="348" y="264" type="line"/>
      <point x="252" y="94" type="line"/>
    </contour>
  </outline>
</glyph>
<glyph name="eight.dnom" format="1">
  <advance width="360"/>
  <outline>
    <contour>
      <point x="256" y="-6"/>
      <point x="318" y="28"/>
      <point x="318" y="82" type="curve" smooth="yes"/>
      <point x="318" y="112"/>
      <point x="298" y="130"/>
      <point x="271" y="142" type="curve"/>
      <point x="295" y="159"/>
      <point x="309" y="181"/>
      <point x="309" y="205" type="curve" smooth="yes"/>
      <point x="309" y="248"/>
      <point x="262" y="277"/>
      <point x="192" y="277" type="curve" smooth="yes"/>
      <point x="110" y="277"/>
      <point x="52" y="242"/>
      <point x="52" y="190" type="curve" smooth="yes"/>
      <point x="52" y="165"/>
      <point x="65" y="149"/>
      <point x="84" y="136" type="curve"/>
      <point x="58" y="119"/>
      <point x="43" y="97"/>
      <point x="43" y="72" type="curve" smooth="yes"/>
      <point x="43" y="26"/>
      <point x="95" y="-6"/>
      <point x="172" y="-6" type="curve" smooth="yes"/>
    </contour>
    <contour>
      <point x="152" y="45"/>
      <point x="135" y="58"/>
      <point x="135" y="80" type="curve" smooth="yes"/>
      <point x="135" y="91"/>
      <point x="139" y="101"/>
      <point x="147" y="109" type="curve"/>
      <point x="188" y="97"/>
      <point x="225" y="89"/>
      <point x="225" y="67" type="curve" smooth="yes"/>
      <point x="225" y="54"/>
      <point x="208" y="45"/>
      <point x="178" y="45" type="curve" smooth="yes"/>
    </contour>
    <contour>
      <point x="170" y="171"/>
      <point x="141" y="179"/>
      <point x="141" y="200" type="curve" smooth="yes"/>
      <point x="141" y="218"/>
      <point x="159" y="230"/>
      <point x="186" y="230" type="curve"/>
      <point x="207" y="226"/>
      <point x="219" y="215"/>
      <point x="219" y="199" type="curve" smooth="yes"/>
      <point x="219" y="184"/>
      <point x="214" y="171"/>
      <point x="204" y="162" type="curve"/>
    </contour>
  </outline>
</glyph>
<glyph name="f_f" format="1">
  <advance width="568"/>
  <outline>
    <contour>
      <point x="173" y="-85"/>
      <point x="208" y="-31"/>
      <point x="208" y="63" type="curve" smooth="yes"/>
      <point x="208" y="108"/>
      <point x="201" y="177"/>
      <point x="201" y="283" type="curve" smooth="yes"/>
      <point x="201" y="326" type="line"/>
      <point x="347" y="326" type="line"/>
      <point x="362" y="3"/>
      <point x="356" y="-58"/>
      <point x="307" y="-130" type="curve"/>
      <point x="340" y="-159" type="line"/>
      <point x="446" y="-85"/>
      <point x="481" y="-31"/>
      <point x="481" y="63" type="curve" smooth="yes"/>
      <point x="481" y="108"/>
      <point x="474" y="177"/>
      <point x="474" y="283" type="curve" smooth="yes"/>
      <point x="474" y="326" type="line"/>
      <point x="512" y="325"/>
      <point x="540" y="321"/>
      <point x="563" y="314" type="curve"/>
      <point x="575" y="344"/>
      <point x="580" y="369"/>
      <point x="580" y="404" type="curve"/>
      <point x="557" y="400"/>
      <point x="521" y="397"/>
      <point x="476" y="396" type="curve"/>
      <point x="480" y="464"/>
      <point x="489" y="488"/>
      <point x="509" y="503" type="curve"/>
      <point x="538" y="497"/>
      <point x="568" y="480"/>
      <point x="623" y="442" type="curve"/>
      <point x="636" y="465"/>
      <point x="652" y="530"/>
      <point x="652" y="563" type="curve"/>
      <point x="620" y="578"/>
      <point x="582" y="585"/>
      <point x="539" y="585" type="curve" smooth="yes"/>
      <point x="497" y="585"/>
      <point x="458" y="572"/>
      <point x="428" y="550" type="curve"/>
      <point x="380" y="573"/>
      <point x="325" y="585"/>
      <point x="266" y="585" type="curve" smooth="yes"/>
      <point x="167" y="585"/>
      <point x="93" y="516"/>
      <point x="74" y="410" type="curve"/>
      <point x="53" y="394"/>
      <point x="31" y="381"/>
      <point x="6" y="368" type="curve"/>
      <point x="6" y="332"/>
      <point x="16" y="324"/>
      <point x="74" y="323" type="curve"/>
      <point x="89" y="3"/>
      <point x="83" y="-58"/>
      <point x="34" y="-130" type="curve"/>
      <point x="67" y="-159" type="line"/>
    </contour>
    <contour>
      <point x="208" y="456"/>
      <point x="218" y="477"/>
      <point x="239" y="491" type="curve"/>
      <point x="376" y="491" type="line"/>
      <point x="361" y="464"/>
      <point x="350" y="432"/>
      <point x="346" y="397" type="curve"/>
      <point x="204" y="397" type="line"/>
    </contour>
  </outline>
</glyph>
<glyph name="f_f_i" format="1">
  <advance width="802"/>
  <outline>
    <contour>
      <point x="173" y="-85"/>
      <point x="208" y="-31"/>
      <point x="208" y="63" type="curve" smooth="yes"/>
      <point x="208" y="108"/>
      <point x="201" y="177"/>
      <point x="201" y="283" type="curve" smooth="yes"/>
      <point x="201" y="326" type="line"/>
      <point x="349" y="326" type="line"/>
      <point x="364" y="3"/>
      <point x="357" y="-58"/>
      <point x="309" y="-130" type="curve"/>
      <point x="342" y="-159" type="line"/>
      <point x="447" y="-85"/>
      <point x="482" y="-31"/>
      <point x="482" y="63" type="curve" smooth="yes"/>
      <point x="482" y="108"/>
      <point x="475" y="177"/>
      <point x="475" y="283" type="curve" smooth="yes"/>
      <point x="475" y="326" type="line"/>
      <point x="621" y="326" type="line"/>
      <point x="622" y="309"/>
      <point x="622" y="290"/>
      <point x="622" y="272" type="curve" smooth="yes"/>
      <point x="622" y="208"/>
      <point x="618" y="144"/>
      <point x="618" y="73" type="curve" smooth="yes"/>
      <point x="618" y="10"/>
      <point x="639" y="-9"/>
      <point x="692" y="-9" type="curve" smooth="yes"/>
      <point x="714" y="-9"/>
      <point x="751" y="0"/>
      <point x="781" y="27" type="curve"/>
      <point x="750" y="61"/>
      <point x="742" y="84"/>
      <point x="742" y="192" type="curve" smooth="yes"/>
      <point x="742" y="294"/>
      <point x="747" y="379"/>
      <point x="754" y="417" type="curve"/>
      <point x="704" y="417"/>
      <point x="663" y="413"/>
      <point x="613" y="397" type="curve"/>
      <point x="477" y="397" type="line"/>
      <point x="481" y="464"/>
      <point x="490" y="488"/>
      <point x="511" y="503" type="curve"/>
      <point x="548" y="497"/>
      <point x="587" y="480"/>
      <point x="656" y="440" type="curve"/>
      <point x="673" y="463"/>
      <point x="693" y="528"/>
      <point x="693" y="561" type="curve"/>
      <point x="650" y="577"/>
      <point x="598" y="585"/>
      <point x="541" y="585" type="curve" smooth="yes"/>
      <point x="498" y="585"/>
      <point x="460" y="572"/>
      <point x="429" y="549" type="curve"/>
      <point x="381" y="573"/>
      <point x="326" y="585"/>
      <point x="266" y="585" type="curve" smooth="yes"/>
      <point x="167" y="585"/>
      <point x="93" y="516"/>
      <point x="74" y="410" type="curve"/>
      <point x="53" y="394"/>
      <point x="31" y="381"/>
      <point x="6" y="368" type="curve"/>
      <point x="6" y="332"/>
      <point x="16" y="324"/>
      <point x="74" y="323" type="curve"/>
      <point x="89" y="3"/>
      <point x="83" y="-58"/>
      <point x="34" y="-130" type="curve"/>
      <point x="67" y="-159" type="line"/>
    </contour>
    <contour>
      <point x="208" y="456"/>
      <point x="218" y="477"/>
      <point x="239" y="491" type="curve"/>
      <point x="378" y="491" type="line"/>
      <point x="363" y="464"/>
      <point x="352" y="432"/>
      <point x="347" y="397" type="curve"/>
      <point x="204" y="397" type="line"/>
    </contour>
  </outline>
</glyph>
<glyph name="f_t" format="1">
  <advance width="601"/>
  <outline>
    <contour>
      <point x="173" y="-84"/>
      <point x="208" y="-30"/>
      <point x="208" y="63" type="curve" smooth="yes"/>
      <point x="208" y="107"/>
      <point x="201" y="170"/>
      <point x="201" y="326" type="curve"/>
      <point x="365" y="326" type="line"/>
      <point x="366" y="305"/>
      <point x="367" y="281"/>
      <point x="367" y="270" type="curve" smooth="yes"/>
      <point x="367" y="198"/>
      <point x="363" y="147"/>
      <point x="363" y="90" type="curve" smooth="yes"/>
      <point x="363" y="16"/>
      <point x="385" y="-9"/>
      <point x="447" y="-9" type="curve" smooth="yes"/>
      <point x="498" y="-9"/>
      <point x="553" y="16"/>
      <point x="581" y="53" type="curve"/>
      <point x="575" y="96" type="line"/>
      <point x="555" y="91"/>
      <point x="528" y="88"/>
      <point x="497" y="87" type="curve"/>
      <point x="491" y="127"/>
      <point x="486" y="185"/>
      <point x="486" y="252" type="curve" smooth="yes"/>
      <point x="486" y="278"/>
      <point x="487" y="302"/>
      <point x="489" y="326" type="curve"/>
      <point x="526" y="325"/>
      <point x="553" y="321"/>
      <point x="572" y="314" type="curve"/>
      <point x="584" y="344"/>
      <point x="589" y="369"/>
      <point x="589" y="404" type="curve"/>
      <point x="567" y="400"/>
      <point x="532" y="397"/>
      <point x="491" y="396" type="curve"/>
      <point x="490" y="416"/>
      <point x="488" y="442"/>
      <point x="486" y="466" type="curve"/>
      <point x="432" y="469" type="line"/>
      <point x="394" y="413"/>
      <point x="344" y="397"/>
      <point x="298" y="397" type="curve" smooth="yes"/>
      <point x="203" y="397" type="line"/>
      <point x="207" y="461"/>
      <point x="215" y="487"/>
      <point x="236" y="503" type="curve"/>
      <point x="265" y="498"/>
      <point x="295" y="484"/>
      <point x="350" y="450" type="curve"/>
      <point x="363" y="473"/>
      <point x="379" y="538"/>
      <point x="379" y="571" type="curve"/>
      <point x="345" y="580"/>
      <point x="307" y="585"/>
      <point x="266" y="585" type="curve" smooth="yes"/>
      <point x="167" y="585"/>
      <point x="93" y="517"/>
      <point x="74" y="410" type="curve"/>
      <point x="54" y="395"/>
      <point x="32" y="382"/>
      <point x="6" y="368" type="curve"/>
      <point x="6" y="331"/>
      <point x="17" y="324"/>
      <point x="74" y="323" type="curve"/>
      <point x="89" y="8"/>
      <point x="84" y="-57"/>
      <point x="34" y="-130" type="curve"/>
      <point x="67" y="-159" type="line"/>
    </contour>
  </outline>
</glyph>
<glyph name="six.dnom" format="1">
  <advance width="359"/>
  <outline>
    <contour>
      <point x="259" y="-5"/>
      <point x="313" y="33"/>
      <point x="313" y="87" type="curve" smooth="yes"/>
      <point x="313" y="138"/>
      <point x="273" y="172"/>
      <point x="213" y="172" type="curve" smooth="yes"/>
      <point x="187" y="172"/>
      <point x="162" y="165"/>
      <point x="139" y="150" type="curve"/>
      <point x="146" y="183"/>
      <point x="163" y="205"/>
      <point x="190" y="215" type="curve"/>
      <point x="208" y="215"/>
      <point x="241" y="199"/>
      <point x="267" y="178" type="curve"/>
      <point x="281" y="195"/>
      <point x="297" y="237"/>
      <point x="297" y="265" type="curve"/>
      <point x="274" y="273"/>
      <point x="247" y="277"/>
      <point x="215" y="277" type="curve" smooth="yes"/>
      <point x="104" y="277"/>
      <point x="44" y="218"/>
      <point x="44" y="126" type="curve" smooth="yes"/>
      <point x="44" y="48"/>
      <point x="99" y="-5"/>
      <point x="182" y="-5" type="curve" smooth="yes"/>
    </contour>
    <contour>
      <point x="154" y="44"/>
      <point x="136" y="70"/>
      <point x="135" y="112" type="curve"/>
      <point x="147" y="122"/>
      <point x="162" y="130"/>
      <point x="177" y="135" type="curve"/>
      <point x="203" y="135"/>
      <point x="220" y="118"/>
      <point x="220" y="92" type="curve" smooth="yes"/>
      <point x="220" y="63"/>
      <point x="206" y="44"/>
      <point x="183" y="44" type="curve" smooth="yes"/>
    </contour>
  </outline>
</glyph>
<glyph name="three.dnom" format="1">
  <advance width="359"/>
  <outline>
    <contour>
      <point x="252" y="-6"/>
      <point x="301" y="28"/>
      <point x="301" y="88" type="curve" smooth="yes"/>
      <point x="301" y="118"/>
      <point x="279" y="152"/>
      <point x="229" y="163" type="curve"/>
      <point x="267" y="183"/>
      <point x="293" y="203"/>
      <point x="293" y="240" type="curve" smooth="yes"/>
      <point x="293" y="255"/>
      <point x="285" y="273"/>
      <point x="276" y="284" type="curve"/>
      <point x="252" y="274"/>
      <point x="216" y="268"/>
      <point x="163" y="268" type="curve" smooth="yes"/>
      <point x="115" y="268"/>
      <point x="78" y="270"/>
      <point x="60" y="274" type="curve"/>
      <point x="60" y="242"/>
      <point x="68" y="209"/>
      <point x="81" y="187" type="curve"/>
      <point x="94" y="193"/>
      <point x="114" y="196"/>
      <point x="149" y="196" type="curve" smooth="yes"/>
      <point x="217" y="196" type="line"/>
      <point x="144" y="152" type="line" smooth="yes"/>
      <point x="119" y="137"/>
      <point x="112" y="123"/>
      <point x="112" y="116" type="curve" smooth="yes"/>
      <point x="112" y="108"/>
      <point x="137" y="95"/>
      <point x="154" y="95" type="curve"/>
      <point x="163" y="113"/>
      <point x="179" y="118"/>
      <point x="181" y="118" type="curve"/>
      <point x="198" y="113"/>
      <point x="208" y="100"/>
      <point x="208" y="85" type="curve" smooth="yes"/>
      <point x="208" y="61"/>
      <point x="187" y="48"/>
      <point x="149" y="48" type="curve" smooth="yes"/>
      <point x="113" y="48"/>
      <point x="82" y="60"/>
      <point x="65" y="79" type="curve"/>
      <point x="57" y="61"/>
      <point x="54" y="42"/>
      <point x="54" y="18" type="curve"/>
      <point x="86" y="1"/>
      <point x="124" y="-6"/>
      <point x="165" y="-6" type="curve" smooth="yes"/>
    </contour>
  </outline>
</glyph>
